<svg id="Слой_1" data-name="Слой 1" xmlns="http://www.w3.org/2000/svg" xmlns:xlink="http://www.w3.org/1999/xlink" viewBox="0 0 472.48 289.34"><defs><style>.hilli-1{fill:url(#Unknown-gradient_16);}.hilli-2{fill:url(#Unknown-gradient_16-2);}.hilli-3{fill:url(#Unknown-gradient_16-3);}.hilli-4{fill:url(#Unknown-gradient_16-4);}.hilli-5{fill:url(#Unknown-gradient_16-5);}.hilli-6{fill:url(#Unknown-gradient_16-6);}.hilli-7{fill:url(#Unknown-gradient_16-7);}.hilli-8{fill:url(#Unknown-gradient_16-8);}.hilli-9{fill:url(#Unknown-gradient_16-9);}.hilli-10{fill:url(#Unknown-gradient_16-10);}.hilli-11{fill:url(#Unknown-gradient_16-11);}.hilli-12{fill:url(#Unknown-gradient_16-12);}.hilli-13{fill:url(#Unknown-gradient_16-13);}.hilli-14{fill:url(#Unknown-gradient_16-14);}.hilli-15{fill:url(#Unknown-gradient_16-15);}.hilli-16{fill:url(#Unknown-gradient_16-16);}.hilli-17{fill:url(#Unknown-gradient_16-17);}.hilli-18{fill:url(#Unknown-gradient_16-18);}.hilli-19{fill:url(#Unknown-gradient_16-19);}.hilli-20{fill:url(#Unknown-gradient_16-20);}.hilli-21{fill:url(#Unknown-gradient_16-21);}.hilli-22{fill:url(#Unknown-gradient_16-22);}.hilli-23{fill:url(#Unknown-gradient_16-23);}.hilli-24{fill:url(#Unknown-gradient_16-24);}.hilli-25{fill:url(#Unknown-gradient_16-25);}.hilli-26{fill:url(#Unknown-gradient_16-26);}.hilli-27{fill:url(#Unknown-gradient_16-27);}.hilli-28{fill:url(#Unknown-gradient_16-28);}.hilli-29{fill:url(#Unknown-gradient_16-29);}.hilli-30,.hilli-31,.hilli-32,.hilli-33,.hilli-34,.hilli-35,.hilli-36,.hilli-37,.hilli-38{fill:#fff;}.hilli-30,.hilli-31,.hilli-32,.hilli-33,.hilli-34,.hilli-35,.hilli-36,.hilli-37,.hilli-38,.hilli-39,.hilli-40{stroke-miterlimit:10;}.hilli-30{stroke:url(#Unknown-gradient_22);}.hilli-31{stroke:url(#Unknown-gradient_22-2);}.hilli-32{stroke:url(#Unknown-gradient_22-3);}.hilli-33{stroke:url(#Unknown-gradient_22-4);}.hilli-34{stroke:url(#Unknown-gradient_22-5);}.hilli-35{stroke:url(#Unknown-gradient_22-6);}.hilli-36{stroke:url(#Unknown-gradient_22-7);}.hilli-37{stroke:url(#Unknown-gradient_22-8);}.hilli-38{stroke:url(#Unknown-gradient_22-9);}.hilli-39,.hilli-40{fill:none;stroke-width:2.6px;}.hilli-39{stroke:url(#Unknown-gradient_16-30);}.hilli-40{stroke:url(#Unknown-gradient_16-31);}</style><radialGradient id="Unknown-gradient_16" cx="98.11" cy="210.65" r="38.5" gradientUnits="userSpaceOnUse"><stop offset="0" stop-color="#f5d730"/><stop offset="1" stop-color="#ff7800"/></radialGradient><radialGradient id="Unknown-gradient_16-2" cx="180.53" cy="203.39" r="37.41" xlink:href="#Unknown-gradient_16"/><radialGradient id="Unknown-gradient_16-3" cx="258.03" cy="201.66" r="41.63" xlink:href="#Unknown-gradient_16"/><radialGradient id="Unknown-gradient_16-4" cx="344.61" cy="204.5" r="39.85" xlink:href="#Unknown-gradient_16"/><radialGradient id="Unknown-gradient_16-5" cx="419.09" cy="216.66" r="28.44" xlink:href="#Unknown-gradient_16"/><radialGradient id="Unknown-gradient_16-6" cx="250" cy="105.54" r="25.98" xlink:href="#Unknown-gradient_16"/><radialGradient id="Unknown-gradient_16-7" cx="310.66" cy="110.37" r="22.97" xlink:href="#Unknown-gradient_16"/><radialGradient id="Unknown-gradient_16-8" cx="363.78" cy="121.05" r="19.63" xlink:href="#Unknown-gradient_16"/><radialGradient id="Unknown-gradient_16-9" cx="409.14" cy="135.3" r="16.17" xlink:href="#Unknown-gradient_16"/><radialGradient id="Unknown-gradient_16-10" cx="446.14" cy="151.09" r="13.08" xlink:href="#Unknown-gradient_16"/><radialGradient id="Unknown-gradient_16-11" cx="189.34" cy="110.37" r="22.97" xlink:href="#Unknown-gradient_16"/><radialGradient id="Unknown-gradient_16-12" cx="136.22" cy="121.05" r="19.63" xlink:href="#Unknown-gradient_16"/><radialGradient id="Unknown-gradient_16-13" cx="90.86" cy="135.3" r="16.17" xlink:href="#Unknown-gradient_16"/><radialGradient id="Unknown-gradient_16-14" cx="53.86" cy="151.09" r="13.08" xlink:href="#Unknown-gradient_16"/><radialGradient id="Unknown-gradient_16-15" cx="236.24" cy="221.45" r="133.88" xlink:href="#Unknown-gradient_16"/><radialGradient id="Unknown-gradient_16-16" cx="21.49" cy="231.85" r="29.14" xlink:href="#Unknown-gradient_16"/><radialGradient id="Unknown-gradient_16-17" cx="450.99" cy="231.85" r="29.14" xlink:href="#Unknown-gradient_16"/><radialGradient id="Unknown-gradient_16-18" cx="166.19" cy="359.32" r="5.91" xlink:href="#Unknown-gradient_16"/><radialGradient id="Unknown-gradient_16-19" cx="182.41" cy="357.84" r="9.37" xlink:href="#Unknown-gradient_16"/><radialGradient id="Unknown-gradient_16-20" cx="199.87" cy="361.32" r="7.23" xlink:href="#Unknown-gradient_16"/><radialGradient id="Unknown-gradient_16-21" cx="212.97" cy="359.35" r="6.55" xlink:href="#Unknown-gradient_16"/><radialGradient id="Unknown-gradient_16-22" cx="229.32" cy="358.87" r="8.08" xlink:href="#Unknown-gradient_16"/><radialGradient id="Unknown-gradient_16-23" cx="244.51" cy="360.62" r="7.58" xlink:href="#Unknown-gradient_16"/><radialGradient id="Unknown-gradient_16-24" cx="260.04" cy="359.54" r="6.16" xlink:href="#Unknown-gradient_16"/><radialGradient id="Unknown-gradient_16-25" cx="273.53" cy="360.82" r="7.48" xlink:href="#Unknown-gradient_16"/><radialGradient id="Unknown-gradient_16-26" cx="287.72" cy="359.05" r="8.56" xlink:href="#Unknown-gradient_16"/><radialGradient id="Unknown-gradient_16-27" cx="298.6" cy="361.09" r="7.47" xlink:href="#Unknown-gradient_16"/><radialGradient id="Unknown-gradient_16-28" cx="312.59" cy="360.82" r="7.48" xlink:href="#Unknown-gradient_16"/><radialGradient id="Unknown-gradient_16-29" cx="329.61" cy="358.87" r="8.08" xlink:href="#Unknown-gradient_16"/><radialGradient id="Unknown-gradient_22" cx="131.68" cy="300.52" r="15.46" gradientUnits="userSpaceOnUse"><stop offset="0" stop-color="#ff7800"/><stop offset="1" stop-color="#ff7800"/></radialGradient><radialGradient id="Unknown-gradient_22-2" cx="161.61" cy="304.23" r="13.21" xlink:href="#Unknown-gradient_22"/><radialGradient id="Unknown-gradient_22-3" cx="192.6" cy="304.23" r="13.92" xlink:href="#Unknown-gradient_22"/><radialGradient id="Unknown-gradient_22-4" cx="224" cy="304.13" r="14.1" xlink:href="#Unknown-gradient_22"/><radialGradient id="Unknown-gradient_22-5" cx="254.83" cy="304.43" r="13.44" xlink:href="#Unknown-gradient_22"/><radialGradient id="Unknown-gradient_22-6" cx="282.8" cy="304.23" r="13.6" xlink:href="#Unknown-gradient_22"/><radialGradient id="Unknown-gradient_22-7" cx="324.18" cy="304.22" r="13.56" xlink:href="#Unknown-gradient_22"/><radialGradient id="Unknown-gradient_22-8" cx="347.99" cy="304.23" r="10.42" xlink:href="#Unknown-gradient_22"/><radialGradient id="Unknown-gradient_22-9" cx="369.15" cy="304.3" r="12.24" xlink:href="#Unknown-gradient_22"/><radialGradient id="Unknown-gradient_16-30" cx="372.12" cy="281.07" r="28.43" xlink:href="#Unknown-gradient_16"/><radialGradient id="Unknown-gradient_16-31" cx="100.36" cy="281.07" r="28.43" xlink:href="#Unknown-gradient_16"/></defs><path class="hilli-1" d="M95.12,253.25H64.29v-14l4.36-.5q-.06-15.83-.13-31.65c-1.44.53-2.88,1.08-4.31,1.62v-14q14.57-7.42,29.55-13.61.17,8.64.32,17.28l-3.65,1.16q.09,5.38.19,10.77c4.42-1.13,8.87-2.21,13.32-3.24q-.12-5.79-.25-11.58L100,196.54l-.36-17.84q15-5.94,30.38-10.65l.48,20.4-4.4,1q.53,21.85,1,43.7l4.42-.33q.24,10.2.49,20.39H101.14q-.18-8.92-.37-17.84l3.77-.35q-.14-6.23-.26-12.46-6.72,1-13.41,2.15.1,5.79.2,11.58l3.72-.36Z" transform="translate(-13.76 -80.72)"/><path class="hilli-2" d="M198.2,253.25H164.8q-.23-11.22-.46-22.45l5.4-.28q-.48-24.75-1-49.49-2.72.42-5.43.87-.24-11.22-.47-22.46,16.88-3.67,34-5.91l.33,23.87-5.43.58q.39,25.78.77,51.58l5.38-.18Z" transform="translate(-13.76 -80.72)"/><path class="hilli-3" d="M286,253.25H230.23q-.07-12.28-.14-24.58l5.3,0q-.1-26.84-.22-53.65l-5.37.18q-.08-12.28-.14-24.58,17.21-.85,34.44-.26L264,175c-1.89,0-3.79-.09-5.68-.12l-.12,53.74q7,0,14,.13,0-8.22.1-16.44,7.07.15,14.13.42Q286.2,233,286,253.25Z" transform="translate(-13.76 -80.72)"/><path class="hilli-4" d="M372.1,253.25H316.33q.19-11.67.4-23.34l5.29.23q.45-25.17.91-50.34l-5.33-.71q.19-11.67.4-23.34,17,2.87,33.86,7.19-.24,10.8-.49,21.62c-1.86-.36-3.72-.72-5.58-1.06l-1.05,47.8q6.93.4,13.87.87l.33-14.13q7,.79,13.95,1.67Q372.5,236.48,372.1,253.25Z" transform="translate(-13.76 -80.72)"/><path class="hilli-5" d="M435.79,253.25h-33.4q.18-8.76.35-17.52l5.35.52.66-37q-2.62-.84-5.26-1.65.17-8.76.34-17.52,16.21,6.59,32,14.6v14q-2.55-1-5.12-1.92l-.15,31.85,5.27.61Z" transform="translate(-13.76 -80.72)"/><path class="hilli-6" d="M250,80.72q3.33,9.42,6.39,18.9,10.35.13,20.69.75-8.7,5.32-17,11,2.9,9.5,5.55,19Q258,124.26,250,118.43q-8,5.83-15.64,11.94,2.64-9.53,5.55-19-8.28-5.64-17-11,10.34-.62,20.68-.75Q246.68,90.14,250,80.72Z" transform="translate(-13.76 -80.72)"/><path class="hilli-7" d="M312.89,87.94q1.78,8.57,3.38,17.12,9,1.31,17.89,3-8.15,3.67-16,7.64,1.47,8.58,2.73,17.14-6-6.15-12.33-12.13-7.68,4.13-15.05,8.51,3.45-7.93,7.09-15.84-6.56-5.86-13.44-11.53,9,.72,18,1.8Q308.94,95.74,312.89,87.94Z" transform="translate(-13.76 -80.72)"/><path class="hilli-8" d="M367.35,101.55q.66,7.47,1.18,14.92,7.53,2,15,4.26-7.32,2.35-14.44,5,.42,7.44.71,14.87-4.59-5.84-9.44-11.58-7,2.73-13.79,5.68,3.78-6.39,7.7-12.74-5-5.67-10.28-11.23,7.62,1.57,15.18,3.42Q363.2,107.8,367.35,101.55Z" transform="translate(-13.76 -80.72)"/><path class="hilli-9" d="M413.29,119q-.09,6.24-.28,12.47,6.12,2.31,12.19,4.8-6.3,1.35-12.46,2.89-.25,6.22-.61,12.41-3.39-5.25-7-10.44c-4.06,1.09-8.08,2.25-12.05,3.45q3.74-5,7.56-9.85-3.69-5.16-7.58-10.26,6.2,2,12.34,4.22Q409.31,123.83,413.29,119Z" transform="translate(-13.76 -80.72)"/><path class="hilli-10" d="M451,138.13c-.34,3.32-.71,6.63-1.09,9.93q4.75,2.28,9.46,4.68-5.13.66-10.2,1.44-.61,4.94-1.29,9.87-2.41-4.45-4.94-8.87-5,.85-10,1.83,3.38-3.66,6.79-7.27-2.61-4.41-5.33-8.77,4.82,2.1,9.58,4.31Q447.45,141.68,451,138.13Z" transform="translate(-13.76 -80.72)"/><path class="hilli-11" d="M187.11,87.94q-1.79,8.57-3.38,17.12-9,1.31-17.89,3,8.15,3.67,16,7.64-1.47,8.58-2.73,17.14,6-6.15,12.33-12.13,7.68,4.13,15.05,8.51-3.45-7.93-7.09-15.84,6.56-5.86,13.44-11.53-9,.72-18,1.8Q191.07,95.74,187.11,87.94Z" transform="translate(-13.76 -80.72)"/><path class="hilli-12" d="M132.65,101.55q-.66,7.47-1.18,14.92-7.53,2-15,4.26,7.32,2.35,14.44,5-.42,7.44-.71,14.87,4.59-5.84,9.44-11.58,7,2.73,13.79,5.68-3.78-6.39-7.7-12.74,5-5.67,10.28-11.23-7.62,1.57-15.18,3.42Q136.8,107.8,132.65,101.55Z" transform="translate(-13.76 -80.72)"/><path class="hilli-13" d="M86.71,119q.09,6.24.28,12.47-6.12,2.31-12.19,4.8,6.3,1.35,12.46,2.89.26,6.22.61,12.41,3.39-5.25,7-10.44c4.06,1.09,8.08,2.25,12,3.45q-3.73-5-7.56-9.85,3.69-5.16,7.58-10.26-6.19,2-12.34,4.22Q90.69,123.83,86.71,119Z" transform="translate(-13.76 -80.72)"/><path class="hilli-14" d="M49,138.13c.34,3.32.71,6.63,1.09,9.93q-4.76,2.28-9.46,4.68,5.13.66,10.2,1.44.62,4.94,1.29,9.87,2.42-4.45,4.94-8.87,5,.85,10,1.83-3.37-3.66-6.79-7.27,2.61-4.41,5.33-8.77-4.81,2.1-9.58,4.31Q52.56,141.68,49,138.13Z" transform="translate(-13.76 -80.72)"/><rect class="hilli-15" x="50.45" y="185.01" width="371.59" height="72.88"/><polygon class="hilli-16" points="42.98 196.69 42.98 267.01 0 267.01 18.2 231.85 0 196.69 42.98 196.69"/><polygon class="hilli-17" points="429.5 196.69 429.5 267.01 472.48 267.01 454.29 231.85 472.48 196.69 429.5 196.69"/><path class="hilli-18" d="M164.05,358.5a2,2,0,0,1-1.14-.32,2.06,2.06,0,0,1-.72-.87,3,3,0,0,1-.25-1.25,4,4,0,0,1,.47-1.86,3.75,3.75,0,0,1,1.42-1.49,4.49,4.49,0,0,1,2.4-.58,5.48,5.48,0,0,1,1.18.12,9.63,9.63,0,0,1,1,.28c.33.1.65.2,1,.28a4.65,4.65,0,0,0,1,.17l-2.09.74,0-.1a3.79,3.79,0,0,0-.48-.22,2.66,2.66,0,0,0-.91-.12,2.21,2.21,0,0,0-1.75.71,2.91,2.91,0,0,0-.63,2,5,5,0,0,0,.13,1.09,4.65,4.65,0,0,0,.43,1.09,1.5,1.5,0,0,1-.52.26A2,2,0,0,1,164.05,358.5Zm1.88,8a2.14,2.14,0,0,1-.87-.17.8.8,0,0,1-.48-.49,1.33,1.33,0,0,0,.44-.38,2.31,2.31,0,0,0,.3-.63,6.58,6.58,0,0,0,.21-1l1.47-7.74a4.93,4.93,0,0,1,.64-1.69,2.94,2.94,0,0,1,1.13-1,4.69,4.69,0,0,1,1.67-.46l-2.21,11.24a4.62,4.62,0,0,1-.42,1.3,1.76,1.76,0,0,1-.73.75A2.33,2.33,0,0,1,165.93,366.52Z" transform="translate(-13.76 -80.72)"/><path class="hilli-19" d="M174.49,358.6a2,2,0,0,1-1.14-.31,1.92,1.92,0,0,1-.69-.84,3,3,0,0,1-.24-1.23,3.69,3.69,0,0,1,.27-1.38,3.58,3.58,0,0,1,.82-1.24,4.05,4.05,0,0,1,1.4-.89,5.82,5.82,0,0,1,2-.32,11.12,11.12,0,0,1,1.78.13q.84.12,1.65.27a11.47,11.47,0,0,0,1.71.19l-1.35,1.35-1.89-.51-.1-.18a4.41,4.41,0,0,0-1.23-.16,2.38,2.38,0,0,0-1.8.71,2.88,2.88,0,0,0-.68,2.05,4.71,4.71,0,0,0,.11,1,4.89,4.89,0,0,0,.37,1,1.33,1.33,0,0,1-.5.26A2,2,0,0,1,174.49,358.6Zm.87,7.94a1.45,1.45,0,0,1-1.05-.38,1.15,1.15,0,0,1-.4-.87.86.86,0,0,1,.08-.36,2.08,2.08,0,0,0,1.14-.36,3,3,0,0,0,.91-1,8,8,0,0,0,.76-1.63c.23-.64.46-1.41.68-2.29s.46-1.87.7-3,.49-2.34.75-3.69l1.17,2c-.23,1.72-.48,3.2-.73,4.44s-.51,2.29-.77,3.14a12.15,12.15,0,0,1-.78,2.06,4.52,4.52,0,0,1-.81,1.2,2.18,2.18,0,0,1-.83.55A2.57,2.57,0,0,1,175.36,366.54Zm9.13-.22a1.61,1.61,0,0,1-.93-.25,2,2,0,0,1-.64-.68,4,4,0,0,1-.41-1l-2.43-8.48-1.29-2.9h3.28l2.82,10,.77,3.15a2.66,2.66,0,0,1-.56.16A3.4,3.4,0,0,1,184.49,366.32Zm-1.39-14.17L180.56,350l.83-.79,2.15,1,2.66-1,.57.79-3.15,2.17Zm2.56,14-1.09-2.32q.57-3.31,1.11-5.7c.36-1.59.71-2.92,1-4a18.34,18.34,0,0,1,1-2.6,6.18,6.18,0,0,1,1-1.49,2.83,2.83,0,0,1,1-.68,2.73,2.73,0,0,1,1-.18,1.58,1.58,0,0,1,1.25.51,1.69,1.69,0,0,1,.46,1.18,1.35,1.35,0,0,1-.24.77,1.92,1.92,0,0,0-.67-.14,2.46,2.46,0,0,0-1.09.25,2.72,2.72,0,0,0-.92.86,7.36,7.36,0,0,0-.84,1.67c-.27.72-.56,1.61-.85,2.69s-.62,2.37-1,3.88S186.08,364.08,185.66,366.1Z" transform="translate(-13.76 -80.72)"/><path class="hilli-20" d="M198.34,366.48a3.34,3.34,0,0,1-3.37-2.3,7.46,7.46,0,0,1-.42-2.64,11.93,11.93,0,0,1,.29-2.58,10.54,10.54,0,0,1,.86-2.44,8.3,8.3,0,0,1,1.43-2,6.32,6.32,0,0,1,2-1.39,6.09,6.09,0,0,1,2.54-.5,5.82,5.82,0,0,1,1.35.15,3.56,3.56,0,0,1,1.12.49,2.66,2.66,0,0,1,.77.8,2.06,2.06,0,0,1,.29,1.12,2.21,2.21,0,0,1-.27,1.12,1.89,1.89,0,0,1-1.65,1,1.73,1.73,0,0,1-.47-.07,1.34,1.34,0,0,1-.45-.21,1.8,1.8,0,0,0,.24-.6,3.77,3.77,0,0,0,.08-.79,2,2,0,0,0-.16-.81,1.31,1.31,0,0,0-.49-.6,1.61,1.61,0,0,0-.86-.21,2.11,2.11,0,0,0-1.36.49,4.44,4.44,0,0,0-1.05,1.32,8.89,8.89,0,0,0-.73,1.81,13.63,13.63,0,0,0-.44,2,12.23,12.23,0,0,0-.15,1.81,8.77,8.77,0,0,0,.09,1.28,3.35,3.35,0,0,0,.32,1,1.75,1.75,0,0,0,.63.69,2,2,0,0,0,1,.24,3.22,3.22,0,0,0,.76-.09,2.59,2.59,0,0,0,.69-.26,1.34,1.34,0,0,0,.48-.42v1.43a5.59,5.59,0,0,1-.84.57,5.31,5.31,0,0,1-1.06.46A3.87,3.87,0,0,1,198.34,366.48Zm1.93,3.57a2.17,2.17,0,0,1-1.21-.36,1.44,1.44,0,0,1-.64-1.13.51.51,0,0,0,.17,0h.15a1.79,1.79,0,0,0,1.16-.37,2.78,2.78,0,0,0,.75-1,5.57,5.57,0,0,0,.4-1.41c.09-.52.16-1.06.21-1.61l.64-4.31,2.85-.36a10.83,10.83,0,0,0-.5,1.49c-.14.54-.28,1.17-.41,1.87l-.45,2.44c-.14.77-.28,1.44-.44,2a6.73,6.73,0,0,1-.57,1.48,2.27,2.27,0,0,1-.83.9A2.38,2.38,0,0,1,200.27,370.05Z" transform="translate(-13.76 -80.72)"/><path class="hilli-21" d="M211.44,366.52a4.15,4.15,0,0,1-3.25-1.21,5.33,5.33,0,0,1-1.09-3.67,13.42,13.42,0,0,1,.29-2.77,12,12,0,0,1,.87-2.57,9.11,9.11,0,0,1,1.37-2.14,6.34,6.34,0,0,1,1.83-1.45,5,5,0,0,1,2.27-.52,3.47,3.47,0,0,1,.47,0,2.26,2.26,0,0,1,.44.08v.08a4.58,4.58,0,0,0-2,.81,5.18,5.18,0,0,0-1.39,1.55,8.57,8.57,0,0,0-.88,2,13.63,13.63,0,0,0-.44,2.34,22.29,22.29,0,0,0-.13,2.44,5,5,0,0,0,.56,2.69,1.87,1.87,0,0,0,1.64.84,2.35,2.35,0,0,0,1.53-.57,5.52,5.52,0,0,0,1.21-1.52,12,12,0,0,0,.87-2.09,15.64,15.64,0,0,0,.54-2.3,14.15,14.15,0,0,0,.18-2.15,4.33,4.33,0,0,0-.25-1.64.83.83,0,0,0-.8-.57,1,1,0,0,0-.75.34,2.37,2.37,0,0,0-.47.91,5.24,5.24,0,0,0-.15,1.31,3.11,3.11,0,0,0,.2,1.25,1.93,1.93,0,0,0,.57.76,1.66,1.66,0,0,1-.6.45,1.58,1.58,0,0,1-.69.14,1.52,1.52,0,0,1-1.17-.52,2.22,2.22,0,0,1-.48-1.54,4.51,4.51,0,0,1,.28-1.56,4.64,4.64,0,0,1,.8-1.42,4,4,0,0,1,1.26-1,3.5,3.5,0,0,1,1.61-.38,2.87,2.87,0,0,1,1.76.52,3.11,3.11,0,0,1,1.06,1.46,6.36,6.36,0,0,1,.36,2.27,10.74,10.74,0,0,1-.28,2.54,11.22,11.22,0,0,1-.9,2.51,9.68,9.68,0,0,1-1.5,2.16,6.82,6.82,0,0,1-2.09,1.51A6,6,0,0,1,211.44,366.52Z" transform="translate(-13.76 -80.72)"/><path class="hilli-22" d="M222.62,366.3a2.77,2.77,0,0,1-.42,0,1.9,1.9,0,0,1-.36-.09c.07-.71.13-1.45.18-2.21s.1-1.51.13-2.23,0-1.39,0-2a23.43,23.43,0,0,0-.13-2.75,9.72,9.72,0,0,0-.34-1.78,4.48,4.48,0,0,0-.5-1.09,3.15,3.15,0,0,0-.6-.65,2.73,2.73,0,0,1,.84-.64,2.41,2.41,0,0,1,1.09-.27,1.56,1.56,0,0,1,1.22.56,3.77,3.77,0,0,1,.77,1.73,13.38,13.38,0,0,1,.27,3q0,.89-.06,2c0,.72-.09,1.46-.17,2.22s-.15,1.53-.24,2.27h.06a7.72,7.72,0,0,0,1.77-1.37,9.9,9.9,0,0,0,2.33-4,7.75,7.75,0,0,0,.34-2.26,5.92,5.92,0,0,0-.22-1.67,4.6,4.6,0,0,0-.65-1.4,1.84,1.84,0,0,1,.58-.68,1.53,1.53,0,0,1,2.05.21,3.33,3.33,0,0,1,.66,1.58,14,14,0,0,1,.22,2.78c0,.61,0,1.32-.1,2.13s-.14,1.64-.24,2.46-.19,1.59-.29,2.28h.06a4.81,4.81,0,0,0,1.43-1,9.51,9.51,0,0,0,1.28-1.64,13.83,13.83,0,0,0,1-2,14.76,14.76,0,0,0,.67-2.18,9.41,9.41,0,0,0,.25-2.12,5.82,5.82,0,0,0-.2-1.55,3.37,3.37,0,0,0-.59-1.2,1.5,1.5,0,0,1,.67-.82,2,2,0,0,1,1-.3,1.35,1.35,0,0,1,.79.25,1.64,1.64,0,0,1,.54.76,3.34,3.34,0,0,1,.2,1.28,11,11,0,0,1-.31,2.47,18.13,18.13,0,0,1-.88,2.78,18.72,18.72,0,0,1-1.37,2.72,15,15,0,0,1-1.77,2.34,8.26,8.26,0,0,1-2.09,1.65,4.87,4.87,0,0,1-2.33.6,2.34,2.34,0,0,1-.38,0l-.36-.07c.07-.42.13-.88.18-1.39s.11-1,.15-1.52.09-1,.13-1.42h-.08a11.14,11.14,0,0,1-1.81,2.31,8.45,8.45,0,0,1-2.18,1.58A5.24,5.24,0,0,1,222.62,366.3Z" transform="translate(-13.76 -80.72)"/><path class="hilli-23" d="M241.14,363.46c0-.45,0-.93.05-1.46s0-1.07,0-1.65c0-.84-.11-1.61-.21-2.32a12.54,12.54,0,0,0-.42-1.93,8.39,8.39,0,0,0-.63-1.53,3.63,3.63,0,0,0-.89-1.07,2.62,2.62,0,0,1,.78-.69,1.81,1.81,0,0,1,.87-.22,1.87,1.87,0,0,1,1.4.62,4.59,4.59,0,0,1,1,1.82,10.47,10.47,0,0,1,.45,2.87,27.56,27.56,0,0,1-.07,2.88c-.07,1-.16,1.83-.25,2.62Zm.14,6.37a1.75,1.75,0,0,1-1.4-.65,2.23,2.23,0,0,1-.51-1.61,4,4,0,0,1,.55-2,8.88,8.88,0,0,1,1.43-1.85c.6-.62,1.28-1.27,2.05-1.95a16.46,16.46,0,0,0,1.49-1.63,13.54,13.54,0,0,0,1.22-1.83,10.52,10.52,0,0,0,.84-2,7.2,7.2,0,0,0,.34-2,5,5,0,0,0-.12-1.14,3.32,3.32,0,0,0-.38-1,2.06,2.06,0,0,1,.78-.63,2.18,2.18,0,0,1,.93-.21,1.28,1.28,0,0,1,.78.26,1.86,1.86,0,0,1,.54.76,2.72,2.72,0,0,1,.17,1.23,7.35,7.35,0,0,1-.65,3,14,14,0,0,1-1.6,2.67,24.76,24.76,0,0,1-2.06,2.38c-.64.63-1.25,1.25-1.81,1.84a11.83,11.83,0,0,0-1.39,1.73,3.25,3.25,0,0,0-.59,1.65,2.07,2.07,0,0,0,.29,1.14,4.24,4.24,0,0,0,.94,1.06,3,3,0,0,1-.87.56A2.83,2.83,0,0,1,241.28,369.83Z" transform="translate(-13.76 -80.72)"/><path class="hilli-24" d="M258.76,366.5a5.45,5.45,0,0,1-2.18-.39,2.93,2.93,0,0,1-1.34-1.08,2.89,2.89,0,0,1-.15-2.83,2.18,2.18,0,0,1,.82-.88,2.23,2.23,0,0,1,1.19-.32,1.94,1.94,0,0,1,.86.18,1.47,1.47,0,0,1,.58.49,1.29,1.29,0,0,1,.2.72,1.7,1.7,0,0,1,0,.22.54.54,0,0,1-.05.22.65.65,0,0,0-.21-.05h-.22a.94.94,0,0,0-.7.28,1.09,1.09,0,0,0-.28.79,1.18,1.18,0,0,0,.52,1,2.2,2.2,0,0,0,1.33.37,2.53,2.53,0,0,0,1.1-.24,2.08,2.08,0,0,0,.84-.72,2.15,2.15,0,0,0,.32-1.18,2.24,2.24,0,0,0-.32-1.18,4.73,4.73,0,0,0-.85-1c-.34-.3-.7-.6-1.07-.89s-.77-.62-1.13-.95a4.46,4.46,0,0,1-.88-1.15,3,3,0,0,1-.35-1.49,3.14,3.14,0,0,1,.43-1.66,3.73,3.73,0,0,1,1.13-1.21,5.29,5.29,0,0,1,1.59-.75,6.81,6.81,0,0,1,1.87-.25,6.18,6.18,0,0,1,1.8.24,2.81,2.81,0,0,1,1.24.76,1.75,1.75,0,0,1,.45,1.22,2.25,2.25,0,0,1-.27,1.13,2,2,0,0,1-.72.73,1.77,1.77,0,0,1-.95.26,1.71,1.71,0,0,1-.65-.11,1,1,0,0,1-.42-.27,2,2,0,0,0,.53-1.32,1.47,1.47,0,0,0-.34-1,1.55,1.55,0,0,0-1.17-.38,2,2,0,0,0-1.34.48,1.68,1.68,0,0,0-.54,1.3,1.84,1.84,0,0,0,.34,1.1,4.26,4.26,0,0,0,.85.91l1.07.83c.4.3.78.63,1.15,1a4.46,4.46,0,0,1,.9,1.18,3.54,3.54,0,0,1,.33,1.58,3.72,3.72,0,0,1-.45,1.84,4.43,4.43,0,0,1-1.23,1.36,5.59,5.59,0,0,1-1.72.83A6.53,6.53,0,0,1,258.76,366.5Z" transform="translate(-13.76 -80.72)"/><path class="hilli-25" d="M278.18,369.26a1.54,1.54,0,0,1-1-.36,2.68,2.68,0,0,1-.74-1.13,8.48,8.48,0,0,1-.48-2c-.11-.82-.19-1.81-.23-3H272.4a15.4,15.4,0,0,1-1.57,2.36,4.4,4.4,0,0,1-1.27,1.1,2.43,2.43,0,0,1-1.07.29,1.41,1.41,0,0,1-1-.33,1,1,0,0,1-.31-.76,1.14,1.14,0,0,1,0-.28,1.17,1.17,0,0,1,.09-.24,2.43,2.43,0,0,0,1.17-.3,4.44,4.44,0,0,0,1.11-.87,8.52,8.52,0,0,0,1.12-1.47c.38-.59.78-1.3,1.2-2.1s.88-1.73,1.36-2.77,1-2.19,1.58-3.45l-.1-.19a4.85,4.85,0,0,0-.7-.19,4.33,4.33,0,0,0-.89-.09,2.45,2.45,0,0,0-1.92.76,3,3,0,0,0-.72,2,4.1,4.1,0,0,0,.1,1.06,4.05,4.05,0,0,0,.42,1,1.67,1.67,0,0,1-.53.28,2.08,2.08,0,0,1-.58.1,1.78,1.78,0,0,1-1.12-.34,2,2,0,0,1-.67-.88,3.19,3.19,0,0,1-.2-1.22,4,4,0,0,1,.54-1.86A4,4,0,0,1,270,353a5.17,5.17,0,0,1,2.57-.59,11.4,11.4,0,0,1,1.33.09l1.56.2,1.56.21a12.3,12.3,0,0,0,1.42.09c0,.61,0,1.3-.06,2.06s-.05,1.56-.07,2.4,0,1.68,0,2.53.05,1.72.1,2.55.14,1.6.26,2.32a10.32,10.32,0,0,0,.49,1.92,3.6,3.6,0,0,0,.8,1.33,1.42,1.42,0,0,1-.36.54,2.25,2.25,0,0,1-.6.45A1.66,1.66,0,0,1,278.18,369.26Zm-5.07-7.92h2.6c0-.42,0-1,0-1.61s0-1.36.07-2.14.07-1.57.09-2.36h0c-.49,1.26-1,2.41-1.47,3.44Z" transform="translate(-13.76 -80.72)"/><path class="hilli-26" d="M284.35,363.46c0-.45,0-.93,0-1.46s0-1.07,0-1.65c0-.84-.11-1.61-.21-2.32a12.54,12.54,0,0,0-.42-1.93,8.39,8.39,0,0,0-.63-1.53,3.63,3.63,0,0,0-.89-1.07,2.62,2.62,0,0,1,.78-.69,1.81,1.81,0,0,1,.87-.22,1.87,1.87,0,0,1,1.4.62,4.59,4.59,0,0,1,1,1.82,10.47,10.47,0,0,1,.45,2.87,27.56,27.56,0,0,1-.07,2.88c-.07,1-.16,1.83-.25,2.62Zm.14,6.37a1.75,1.75,0,0,1-1.4-.65,2.23,2.23,0,0,1-.51-1.61,4,4,0,0,1,.55-2,8.88,8.88,0,0,1,1.43-1.85c.6-.62,1.28-1.27,2.05-1.95a16.46,16.46,0,0,0,1.49-1.63,13.54,13.54,0,0,0,1.22-1.83,10.52,10.52,0,0,0,.84-2,6.86,6.86,0,0,0,.34-2,5,5,0,0,0-.12-1.14,3.61,3.61,0,0,0-.37-1,2,2,0,0,1,.77-.63,2.18,2.18,0,0,1,.93-.21,1.28,1.28,0,0,1,.78.26,1.86,1.86,0,0,1,.54.76,2.72,2.72,0,0,1,.17,1.23,7.35,7.35,0,0,1-.65,3,14,14,0,0,1-1.6,2.67,24.76,24.76,0,0,1-2.06,2.38c-.64.63-1.25,1.25-1.81,1.84a11.83,11.83,0,0,0-1.39,1.73,3.25,3.25,0,0,0-.59,1.65,2.15,2.15,0,0,0,.29,1.14,4.45,4.45,0,0,0,.94,1.06,2.86,2.86,0,0,1-.87.56A2.83,2.83,0,0,1,284.49,369.83ZM286.27,351l-.18-.9,4.71-1.82a1,1,0,0,1,.35.38,1.35,1.35,0,0,1,.11.55,1.3,1.3,0,0,1-.41,1,2.21,2.21,0,0,1-1,.49,7.49,7.49,0,0,1-1.25.15Z" transform="translate(-13.76 -80.72)"/><path class="hilli-27" d="M301.3,369.66a4.16,4.16,0,0,1-1.8-.39,8.76,8.76,0,0,1-1.57-.95c-.49-.37-1-.74-1.45-1.12a10.29,10.29,0,0,0-1.45-.95,3.24,3.24,0,0,0-2-.35l-.36.1a1,1,0,0,1-.13-.25.71.71,0,0,1-.06-.28,1,1,0,0,1,.15-.54,1.16,1.16,0,0,1,.48-.38,2.14,2.14,0,0,1,.83-.14,4.18,4.18,0,0,1,1.44.28,11.53,11.53,0,0,1,1.53.71l1.58.85A11.84,11.84,0,0,0,300,367a4.49,4.49,0,0,0,1.5.27,3.62,3.62,0,0,0,.82-.09,3.12,3.12,0,0,0,.71-.24,1,1,0,0,1,.4.46,1.42,1.42,0,0,1,.13.61,1.39,1.39,0,0,1-.26.76,2,2,0,0,1-.76.66A2.61,2.61,0,0,1,301.3,369.66ZM295,365.05l-1.25-.44a3.86,3.86,0,0,0,1.05-1.34,6.36,6.36,0,0,0,.51-1.8c.11-.7.2-1.51.28-2.43a9.27,9.27,0,0,1,.92-3.49,5.62,5.62,0,0,1,2-2.24,5.52,5.52,0,0,1,2.94-.78,4,4,0,0,1,1.69.34,2.89,2.89,0,0,1,1.19,1,2.47,2.47,0,0,1,.41,1.52,2.79,2.79,0,0,1-.25,1.19,2.27,2.27,0,0,1-.7.91,1.78,1.78,0,0,1-1.09.35,1.69,1.69,0,0,1-.56-.09,1.28,1.28,0,0,1-.43-.25,1.81,1.81,0,0,0,.4-.8,4,4,0,0,0,.15-1.11,2,2,0,0,0-.37-1.36,1.25,1.25,0,0,0-1-.46,1.81,1.81,0,0,0-1.13.35,2.59,2.59,0,0,0-.75,1.07,8,8,0,0,0-.48,1.69q-.18,1-.3,2.25a10,10,0,0,1-.56,2.64,7.4,7.4,0,0,1-1.13,2A4.67,4.67,0,0,1,295,365.05Z" transform="translate(-13.76 -80.72)"/><path class="hilli-28" d="M317.24,369.26a1.56,1.56,0,0,1-1-.36,2.77,2.77,0,0,1-.74-1.13,9.58,9.58,0,0,1-.48-2c-.11-.82-.18-1.81-.22-3h-3.34a14.7,14.7,0,0,1-1.57,2.36,4.28,4.28,0,0,1-1.27,1.1,2.43,2.43,0,0,1-1.07.29,1.41,1.41,0,0,1-1-.33,1,1,0,0,1-.31-.76,1.14,1.14,0,0,1,0-.28,1.17,1.17,0,0,1,.09-.24,2.43,2.43,0,0,0,1.17-.3,4.44,4.44,0,0,0,1.11-.87,8.52,8.52,0,0,0,1.12-1.47c.38-.59.78-1.3,1.21-2.1s.87-1.73,1.36-2.77,1-2.19,1.57-3.45l-.1-.19a4.85,4.85,0,0,0-.7-.19,4.31,4.31,0,0,0-.88-.09,2.46,2.46,0,0,0-1.93.76,3,3,0,0,0-.71,2,3.89,3.89,0,0,0,.51,2.1,1.62,1.62,0,0,1-.52.28,2.15,2.15,0,0,1-.59.1,1.78,1.78,0,0,1-1.12-.34,2,2,0,0,1-.67-.88,3,3,0,0,1-.19-1.22,3.86,3.86,0,0,1,.53-1.86,4.1,4.1,0,0,1,1.56-1.5,5.17,5.17,0,0,1,2.57-.59,11.4,11.4,0,0,1,1.33.09l1.56.2,1.57.21a12.16,12.16,0,0,0,1.42.09c0,.61,0,1.3-.06,2.06s-.05,1.56-.07,2.4,0,1.68,0,2.53,0,1.72.1,2.55a22.29,22.29,0,0,0,.25,2.32,10.32,10.32,0,0,0,.49,1.92,3.74,3.74,0,0,0,.8,1.33,1.51,1.51,0,0,1-.35.54,2.47,2.47,0,0,1-.61.45A1.66,1.66,0,0,1,317.24,369.26Zm-5.06-7.92h2.6c0-.42,0-1,0-1.61s0-1.36.06-2.14.07-1.57.09-2.36h0c-.48,1.26-1,2.41-1.46,3.44S312.53,360.58,312.18,361.34Z" transform="translate(-13.76 -80.72)"/><path class="hilli-29" d="M322.91,366.3a2.73,2.73,0,0,1-.41,0,1.72,1.72,0,0,1-.36-.09c.07-.71.13-1.45.18-2.21s.09-1.51.13-2.23.05-1.39.05-2a25.84,25.84,0,0,0-.13-2.75,9.62,9.62,0,0,0-.35-1.78,4.13,4.13,0,0,0-.5-1.09,3.12,3.12,0,0,0-.59-.65,2.8,2.8,0,0,1,.83-.64,2.41,2.41,0,0,1,1.09-.27,1.58,1.58,0,0,1,1.23.56,4,4,0,0,1,.77,1.73,13.38,13.38,0,0,1,.27,3q0,.89-.06,2c0,.72-.1,1.46-.17,2.22s-.16,1.53-.25,2.27h.06a7.77,7.77,0,0,0,1.78-1.37,10,10,0,0,0,1.4-1.87,10.67,10.67,0,0,0,.93-2.17,8.1,8.1,0,0,0,.34-2.26,6.3,6.3,0,0,0-.22-1.67,4.87,4.87,0,0,0-.66-1.4,1.87,1.87,0,0,1,.59-.68,1.52,1.52,0,0,1,2,.21,3.43,3.43,0,0,1,.67,1.58,14.79,14.79,0,0,1,.22,2.78c0,.61,0,1.32-.1,2.13s-.15,1.64-.24,2.46-.19,1.59-.3,2.28h.06a4.68,4.68,0,0,0,1.43-1,9,9,0,0,0,1.28-1.64,12.91,12.91,0,0,0,1-2,14.81,14.81,0,0,0,.68-2.18,10,10,0,0,0,.25-2.12,5.82,5.82,0,0,0-.2-1.55,3.38,3.38,0,0,0-.6-1.2,1.52,1.52,0,0,1,.68-.82,2,2,0,0,1,1-.3,1.34,1.34,0,0,1,.78.25,1.65,1.65,0,0,1,.55.76,3.54,3.54,0,0,1,.2,1.28,11.65,11.65,0,0,1-.31,2.47,19.3,19.3,0,0,1-.88,2.78,19.78,19.78,0,0,1-1.37,2.72A15,15,0,0,1,334,364a8.62,8.62,0,0,1-2.09,1.65,4.91,4.91,0,0,1-2.34.6,2.22,2.22,0,0,1-.37,0l-.36-.07c.06-.42.12-.88.18-1.39l.15-1.52c0-.51.09-1,.13-1.42h-.08a11.48,11.48,0,0,1-1.81,2.31,8.8,8.8,0,0,1-2.18,1.58A5.25,5.25,0,0,1,322.91,366.3Z" transform="translate(-13.76 -80.72)"/><path class="hilli-30" d="M125.42,292a27.32,27.32,0,0,1,5.21.37,2.62,2.62,0,0,1,1.31.61,1.42,1.42,0,0,1,.5,1.06,1.45,1.45,0,0,1-.39.92,2.16,2.16,0,0,0-.55,1,4.33,4.33,0,0,0,1,2c.43.59.84.89,1.22.89a1.15,1.15,0,0,0,.71-.27,6,6,0,0,0,.91-1,2.53,2.53,0,0,0,.68-1.36,1.14,1.14,0,0,0-.08-.47,6.4,6.4,0,0,0-.57-.75A1.58,1.58,0,0,1,135,294q0-2,5.33-2a16.56,16.56,0,0,1,3.92.28,1.8,1.8,0,0,1,1,.66,1.66,1.66,0,0,1,.37,1,1.32,1.32,0,0,1-.43,1.08,3.31,3.31,0,0,1-1.52.56,4,4,0,0,0-1.72.76,28.42,28.42,0,0,0-2.68,2.65,19.32,19.32,0,0,0-2.95,3.77,8.64,8.64,0,0,0-.59,3.62c0,1.34.06,2.59.16,3.74a3.78,3.78,0,0,0,.33,1.47,2.53,2.53,0,0,0,1,.81c.85.44,1.27,1,1.27,1.65q0,2.37-7,2.37a25.63,25.63,0,0,1-5.43-.55c-1.44-.32-2.16-.94-2.16-1.87,0-.72.44-1.23,1.32-1.55a2,2,0,0,0,1.24-.89q.55-1.2.56-5.67a6.83,6.83,0,0,0-.28-2.17,8.2,8.2,0,0,0-1.22-2,43.21,43.21,0,0,0-4.06-4.62,5.15,5.15,0,0,0-1.74-1.2,6.42,6.42,0,0,1-1.43-.64,1.41,1.41,0,0,1-.48-1.12c0-.77.58-1.33,1.75-1.68A23.74,23.74,0,0,1,125.42,292Zm8.64-7.42a8,8,0,0,1,2.82.47,2.48,2.48,0,0,1,1,.65,1.15,1.15,0,0,1,.37.83c0,.52-.52,1.16-1.48,1.9a9.34,9.34,0,0,1-5.82,2c-1.2,0-1.79-.43-1.79-1.29a1.13,1.13,0,0,1,.18-.69,7.9,7.9,0,0,1,1-.91,8.56,8.56,0,0,0,1-.74.6.6,0,0,0,.17-.44,1.2,1.2,0,0,0-.2-.51.48.48,0,0,1-.07-.26c0-.3.26-.55.78-.73A6.28,6.28,0,0,1,134.06,284.57Z" transform="translate(-13.76 -80.72)"/><path class="hilli-31" d="M161.79,291.87a12.47,12.47,0,0,1,7.82,2.56,13.12,13.12,0,0,1,3.68,4.56,12.57,12.57,0,0,1,1.37,5.57,11.13,11.13,0,0,1-2.71,7.35,12.82,12.82,0,0,1-6,3.95,14.86,14.86,0,0,1-4.58.73,13.72,13.72,0,0,1-5.77-1.25,11.64,11.64,0,0,1-5.2-4.58,12.17,12.17,0,0,1-1.83-6.53,11.92,11.92,0,0,1,2.35-7.31,12.16,12.16,0,0,1,5.62-4.15A14.74,14.74,0,0,1,161.79,291.87Zm-1.65,5a2.64,2.64,0,0,0-2.32,1.3,4,4,0,0,0-.66,2.32A15.76,15.76,0,0,0,158,305a21,21,0,0,0,2,4.59,4.43,4.43,0,0,0,1.33,1.36,3,3,0,0,0,1.62.5,2.62,2.62,0,0,0,2.13-1,4,4,0,0,0,.81-2.61,17.14,17.14,0,0,0-.68-4.55,15.79,15.79,0,0,0-1.76-4.16,5.64,5.64,0,0,0-1.53-1.67A3.22,3.22,0,0,0,160.14,296.87Z" transform="translate(-13.76 -80.72)"/><path class="hilli-32" d="M198.45,297.11l-1.87,1.79a2.66,2.66,0,0,0-1,1.78,1.77,1.77,0,0,0,.23.87,7.74,7.74,0,0,0,.88,1.18l6.51,7.54a12.07,12.07,0,0,0,1.2,1.28,4.76,4.76,0,0,0,1,.57,3.41,3.41,0,0,1,1.33.89,2,2,0,0,1,.39,1.27c0,1.23-.88,1.84-2.63,1.84h-6.6a1.72,1.72,0,0,1-1.07-.29,8.22,8.22,0,0,1-1.24-1.46,51.88,51.88,0,0,0-3.59-4.29,17.79,17.79,0,0,0-1.37-1.36,1.16,1.16,0,0,0-.72-.33c-.67,0-1,.64-1,1.9a2.79,2.79,0,0,0,.66,2.14l.56.39a1.78,1.78,0,0,1,.94,1.51q0,1.16-1.53,1.65a18.82,18.82,0,0,1-5.16.49,21,21,0,0,1-4.7-.38,2,2,0,0,1-1-.64,1.54,1.54,0,0,1-.39-1,1.89,1.89,0,0,1,1-1.59,2.09,2.09,0,0,0,.68-.68,5.4,5.4,0,0,0,.37-1.27,38.3,38.3,0,0,0,.35-6.06,43.71,43.71,0,0,0-.37-6.91,3.17,3.17,0,0,0-.38-1.2,2.66,2.66,0,0,0-.85-.72,1.69,1.69,0,0,1-1-1.55,1.66,1.66,0,0,1,.61-1.34,4.49,4.49,0,0,1,2-.76,23.9,23.9,0,0,1,4.46-.35,11.68,11.68,0,0,1,4,.52,1.76,1.76,0,0,1,1.19,1.74,1.52,1.52,0,0,1-.18.81,5,5,0,0,1-.95.9,2.45,2.45,0,0,0-.52,1.17,7.61,7.61,0,0,0-.23,1.81c0,1,.22,1.46.66,1.46a1.15,1.15,0,0,0,.78-.35,22.9,22.9,0,0,0,1.5-1.74,5.13,5.13,0,0,0,1.31-2.21,2.33,2.33,0,0,0-.33-.94,1.79,1.79,0,0,1-.23-.8,1.86,1.86,0,0,1,1.39-1.82,14.72,14.72,0,0,1,4.76-.53,16.15,16.15,0,0,1,4,.35,1.83,1.83,0,0,1,1.58,1.84,1.81,1.81,0,0,1-.33,1,1.5,1.5,0,0,1-.82.62A7.38,7.38,0,0,1,201,296a4.11,4.11,0,0,0-1.38.22A4.52,4.52,0,0,0,198.45,297.11Z" transform="translate(-13.76 -80.72)"/><path class="hilli-33" d="M232.45,304.09l3.29,7.05a5.06,5.06,0,0,0,.79,1.28,1.68,1.68,0,0,0,.95.41c.84.13,1.26.56,1.26,1.27s-.51,1.46-1.54,1.83a16.07,16.07,0,0,1-5,.56,37.25,37.25,0,0,1-5.83-.33,2.76,2.76,0,0,1-1.39-.64,1.52,1.52,0,0,1-.51-1.15,1.13,1.13,0,0,1,.27-.81,2.44,2.44,0,0,1,1-.54c.55-.18.82-.49.82-.94,0-.77-.47-1.23-1.41-1.37a33.07,33.07,0,0,0-4.27-.21,7.46,7.46,0,0,0-2.77.28,1.31,1.31,0,0,0-.48.63,2.05,2.05,0,0,0-.21.87.63.63,0,0,0,.14.49,4.83,4.83,0,0,0,1,.38,1.25,1.25,0,0,1,1.06,1.25q0,2.07-5,2.07a16.47,16.47,0,0,1-4.14-.38,1.53,1.53,0,0,1-1.22-1.6,1.21,1.21,0,0,1,.27-.84,2.33,2.33,0,0,1,1-.54,3.77,3.77,0,0,0,1.72-1.12,16.86,16.86,0,0,0,1.66-3.09l2.46-5.38a44.67,44.67,0,0,0,1.82-4.43,10.72,10.72,0,0,0,.48-2.89,9.2,9.2,0,0,1,.18-2.08,2.63,2.63,0,0,1,.74-1.14,4.12,4.12,0,0,1,3.06-1.22,5.06,5.06,0,0,1,3.36,1.38Q228.21,295,232.45,304.09Zm-12.12,2.2h3.41c.63,0,.95-.14.95-.42a8.9,8.9,0,0,0-1.31-2.82,9.17,9.17,0,0,0-.91-1.38.91.91,0,0,0-.66-.35c-.42,0-.76.39-1,1.17-.05.1-.22.52-.51,1.24a10.19,10.19,0,0,0-.73,2.12C219.53,306.14,219.8,306.29,220.33,306.29Z" transform="translate(-13.76 -80.72)"/><path class="hilli-34" d="M253,306.13c-.44,0-.72.13-.84.4a5.8,5.8,0,0,0-.18,1.86,17,17,0,0,0,.27,3.45,1.36,1.36,0,0,0,.26.54,2.72,2.72,0,0,0,.67.47,1.72,1.72,0,0,1,1,1.52c0,.76-.48,1.3-1.45,1.62a17.54,17.54,0,0,1-4.92.48c-4.3,0-6.44-.81-6.44-2.44a1.09,1.09,0,0,1,.19-.67,3.79,3.79,0,0,1,.87-.7,2.57,2.57,0,0,0,1-1.19,8.72,8.72,0,0,0,.38-2.38c.06-.83.08-3.78.08-8.86a14.8,14.8,0,0,0-.24-3.3,2,2,0,0,0-1-1.27,3,3,0,0,1-1-.67,1.13,1.13,0,0,1-.26-.79,1.5,1.5,0,0,1,.49-1.12,3,3,0,0,1,1.39-.71,9.07,9.07,0,0,1,2.05-.19c.39,0,1.34.06,2.88.18.29,0,.75,0,1.37,0,1.05,0,2.44-.07,4.18-.21,1.1-.08,1.88-.12,2.32-.12a10.15,10.15,0,0,1,6.16,1.79,5.28,5.28,0,0,1,2.19,4.5,5.67,5.67,0,0,1-.76,2.91,4.86,4.86,0,0,1-2.11,2c-.37.18-.56.4-.56.66s.29.61.86.82a5.1,5.1,0,0,1,2.68,2,10.51,10.51,0,0,1,1.22,4.11,3.08,3.08,0,0,0,.45,1.49,3.12,3.12,0,0,0,1.38.65,1,1,0,0,1,.55.45,1.33,1.33,0,0,1,.23.75,1.78,1.78,0,0,1-.42,1.09,2.77,2.77,0,0,1-1.08.86,9.54,9.54,0,0,1-4,.68c-2.27,0-3.88-.59-4.86-1.79a6.91,6.91,0,0,1-1.12-2,34.85,34.85,0,0,1-1.09-3.8,5.48,5.48,0,0,0-1-2.33A2.41,2.41,0,0,0,253,306.13Zm-1-8.88-.19,4.06v.15a1.37,1.37,0,0,0,.18.84,1,1,0,0,0,.74.21,2.85,2.85,0,0,0,2.23-.79,3.78,3.78,0,0,0,.7-2.54c0-2.24-.8-3.36-2.39-3.36a1.24,1.24,0,0,0-.95.31A1.8,1.8,0,0,0,252,297.25Z" transform="translate(-13.76 -80.72)"/><path class="hilli-35" d="M276.54,292a27.2,27.2,0,0,1,5.2.37,2.62,2.62,0,0,1,1.32.61,1.41,1.41,0,0,1,.49,1.06,1.43,1.43,0,0,1-.38.92,2.21,2.21,0,0,0-.56,1,4.39,4.39,0,0,0,1,2c.43.59.83.89,1.22.89a1.15,1.15,0,0,0,.71-.27,6.43,6.43,0,0,0,.91-1,2.5,2.5,0,0,0,.67-1.36,1.16,1.16,0,0,0-.07-.47q-.09-.15-.57-.75a1.58,1.58,0,0,1-.35-1.08q0-2,5.33-2a16.62,16.62,0,0,1,3.92.28,1.8,1.8,0,0,1,.95.66,1.66,1.66,0,0,1,.37,1,1.32,1.32,0,0,1-.43,1.08,3.31,3.31,0,0,1-1.52.56,4,4,0,0,0-1.72.76,28.42,28.42,0,0,0-2.68,2.65,19.5,19.5,0,0,0-3,3.77,8.66,8.66,0,0,0-.58,3.62c0,1.34.05,2.59.16,3.74a3.78,3.78,0,0,0,.33,1.47,2.53,2.53,0,0,0,1,.81c.85.44,1.27,1,1.27,1.65q0,2.37-7,2.37a25.5,25.5,0,0,1-5.43-.55c-1.44-.32-2.16-.94-2.16-1.87,0-.72.44-1.23,1.32-1.55a2,2,0,0,0,1.24-.89q.56-1.2.55-5.67a6.88,6.88,0,0,0-.27-2.17,8.53,8.53,0,0,0-1.22-2,45.54,45.54,0,0,0-4.06-4.62,5.15,5.15,0,0,0-1.74-1.2,6.19,6.19,0,0,1-1.43-.64,1.39,1.39,0,0,1-.49-1.12c0-.77.59-1.33,1.76-1.68A23.68,23.68,0,0,1,276.54,292Z" transform="translate(-13.76 -80.72)"/><path class="hilli-36" d="M318.08,292q5.43,0,5.43,2.25a1.66,1.66,0,0,1-.27,1,3.55,3.55,0,0,1-1.07.85,1.85,1.85,0,0,0-.86,1.1,13.19,13.19,0,0,0-.18,2.75c0,.82.15,1.31.45,1.5a1.56,1.56,0,0,0,.79.21c.36,0,1.19,0,2.5,0a7.39,7.39,0,0,0,2.23-.19c.29-.12.44-.44.44-.95a16.39,16.39,0,0,0-.21-3.21,1.82,1.82,0,0,0-.82-1.24,3.56,3.56,0,0,1-1-.74,1.26,1.26,0,0,1-.25-.81,1.86,1.86,0,0,1,.54-1.29,2.66,2.66,0,0,1,1.41-.79,19.94,19.94,0,0,1,4.55-.44,14.16,14.16,0,0,1,4.73.58c1,.39,1.52,1,1.52,1.82a1.67,1.67,0,0,1-1.08,1.57,2.4,2.4,0,0,0-.89.6,2.63,2.63,0,0,0-.33,1.07c0,.29-.1,1.58-.17,3.87s-.11,4.1-.11,5.45a22,22,0,0,0,.27,4.49,1.58,1.58,0,0,0,.31.7,7.45,7.45,0,0,0,1.1.69,1.21,1.21,0,0,1,.66,1.12,2,2,0,0,1-1.58,1.92,15.62,15.62,0,0,1-5.11.6,12.72,12.72,0,0,1-4.58-.61,1.83,1.83,0,0,1-1.34-1.72,1.7,1.7,0,0,1,1-1.55,2.08,2.08,0,0,0,.69-.56,3.4,3.4,0,0,0,.35-1,17.43,17.43,0,0,0,.32-3.59c0-.73-.11-1.19-.33-1.36a3.26,3.26,0,0,0-1.68-.26,13.22,13.22,0,0,0-4,.35c-.23.09-.37.36-.43.82a16.63,16.63,0,0,0-.11,2,5.54,5.54,0,0,0,.56,2.86,3.31,3.31,0,0,0,.91.71,1.48,1.48,0,0,1,.73,1.38c0,.81-.57,1.43-1.69,1.86a14.16,14.16,0,0,1-4.83.64,15.42,15.42,0,0,1-4.66-.59,2.87,2.87,0,0,1-1.23-.74,1.49,1.49,0,0,1-.44-1.05,1.27,1.27,0,0,1,.28-.89,4.45,4.45,0,0,1,1.21-.8,1.43,1.43,0,0,0,.69-.63,3.75,3.75,0,0,0,.31-1.29,44.47,44.47,0,0,0,.26-5.33c0-.4,0-.88,0-1.44-.05-2.79-.07-4.38-.07-4.77a4.62,4.62,0,0,0-.25-2,3.41,3.41,0,0,0-1.42-1,1.18,1.18,0,0,1-.77-1.1c0-1.17,1.14-2,3.42-2.44A21,21,0,0,1,318.08,292Z" transform="translate(-13.76 -80.72)"/><path class="hilli-37" d="M348.78,292a19.39,19.39,0,0,1,3.74.35c1.58.31,2.37,1,2.37,2a1.11,1.11,0,0,1-.23.76,5.36,5.36,0,0,1-1.2.74,2.26,2.26,0,0,0-1,1.76,35.11,35.11,0,0,0-.25,5.29,58,58,0,0,0,.33,8.24,1.68,1.68,0,0,0,.37.77,3,3,0,0,0,.88.58,1.65,1.65,0,0,1,1.15,1.52c0,.93-.71,1.57-2.12,1.92a24.46,24.46,0,0,1-5.63.55c-3.78,0-5.68-.72-5.68-2.16,0-.52.38-1,1.12-1.46a2,2,0,0,0,1-1.43,65.68,65.68,0,0,0,.33-8.43,21.77,21.77,0,0,0-.45-5.71A2.66,2.66,0,0,0,342.3,296a4,4,0,0,1-1-.78,1.27,1.27,0,0,1-.24-.8,1.34,1.34,0,0,1,.72-1.19,8.06,8.06,0,0,1,2.55-.79A22.44,22.44,0,0,1,348.78,292Z" transform="translate(-13.76 -80.72)"/><path class="hilli-38" d="M369.41,300v8a8.1,8.1,0,0,0,.47,3.48c.38.62,1.19.92,2.42.92a5.11,5.11,0,0,0,3.14-.87,4.65,4.65,0,0,0,1.6-2.71c.17-.76.57-1.14,1.18-1.14a1.78,1.78,0,0,1,1.51.83,3.64,3.64,0,0,1,.58,2.15,8.55,8.55,0,0,1-1.6,4.62,4.23,4.23,0,0,1-.89,1.07,1.48,1.48,0,0,1-.92.28l-3.87-.47H360.86a3.79,3.79,0,0,1-1.69-.27,1.31,1.31,0,0,1-.71-1.21,1,1,0,0,1,.23-.72,5,5,0,0,1,1.14-.67,2.22,2.22,0,0,0,1.27-1.32,20,20,0,0,0,.23-4.16q0-1.61-.09-4.62c-.05-1.93-.09-3.38-.1-4.35a5.46,5.46,0,0,0-.22-1.91,1.37,1.37,0,0,0-.91-.74,6.09,6.09,0,0,1-1.47-.64,1.25,1.25,0,0,1-.55-1c0-.84.7-1.49,2.1-1.93a16.41,16.41,0,0,1,4.81-.57,26.16,26.16,0,0,1,5.05.35c1.44.31,2.16.94,2.16,1.88a1.15,1.15,0,0,1-.29.85,5.78,5.78,0,0,1-1.4.75,1.43,1.43,0,0,0-.84,1A17.57,17.57,0,0,0,369.41,300Z" transform="translate(-13.76 -80.72)"/><line class="hilli-39" x1="331.94" y1="281.07" x2="412.3" y2="281.07"/><line class="hilli-40" x1="60.18" y1="281.07" x2="140.54" y2="281.07"/></svg>