<svg xmlns="http://www.w3.org/2000/svg" viewBox="0 0 53.41 53.56"><defs><style>.cls-1{fill:#12151b;}</style></defs><g id="Слой_2" data-name="Слой 2"><g id="Слой_1-2" data-name="Слой 1"><path class="cls-1" d="M53.41,26.21v0s0-.05,0-.08c0-.41-.17-.55-1.74-1.51l-.47-.29a10.48,10.48,0,0,1-3.68-3.44,17.15,17.15,0,0,1-1.81-5.24l0-.2c-.13-.59-.25-1.09-.35-1.48l-.11-.42-.42-.11c-.41-.11-.91-.23-1.49-.36l-.2,0c-.39-.09-.82-.18-1.28-.3l-.87-.21-.21-.87-.3-1.28,0-.21c-.13-.57-.25-1.07-.36-1.49l-.11-.42-.42-.11L38,7.77l-.19,0a17.26,17.26,0,0,1-5.22-1.82,10.53,10.53,0,0,1-3.43-3.68l-.28-.46C27.93.19,27.79.06,27.39,0h-.11a.63.63,0,0,0-.19,0L26.7.14,26.31,0a.58.58,0,0,0-.19,0H26c-.41,0-.54.18-1.5,1.74l-.3.48A10.41,10.41,0,0,1,20.8,5.91a17.5,17.5,0,0,1-5.23,1.82l-.2,0-1.48.35-.42.11-.11.42c-.1.39-.22.9-.36,1.49l0,.22c-.09.38-.18.82-.29,1.27l-.22.87-.87.21c-.45.12-.88.21-1.27.3l-.2,0c-.57.13-1.08.25-1.49.36l-.41.11-.12.42c-.1.41-.22.91-.35,1.49l0,.2a17.19,17.19,0,0,1-1.81,5.23A10.37,10.37,0,0,1,2.22,24.3l-.47.28C.18,25.55.06,25.69,0,26.1v.11a.63.63,0,0,0,0,.19l.1.38-.1.38a.69.69,0,0,0,0,.2v.11c.06.4.18.54,1.75,1.51l.47.29A10.33,10.33,0,0,1,5.89,32.7,17.15,17.15,0,0,1,7.7,37.94l0,.2c.13.58.25,1.08.35,1.48l.12.43.41.11,1.49.35.2,0c.38.09.82.18,1.27.3l.87.21.22.87c.11.46.21.9.29,1.29l0,.21c.13.58.25,1.08.35,1.48l.11.42.42.11c.4.11.9.23,1.48.35l.2.05a17.09,17.09,0,0,1,5.23,1.81,10.41,10.41,0,0,1,3.42,3.68l.29.46c1,1.59,1.1,1.71,1.51,1.76h.1a.63.63,0,0,0,.19,0l.39-.1.39.1a.63.63,0,0,0,.19,0h.11c.4,0,.54-.18,1.51-1.76l.28-.46a10.35,10.35,0,0,1,3.43-3.68,16.9,16.9,0,0,1,5.21-1.81l.2-.05c.58-.12,1.08-.24,1.48-.35l.42-.11.11-.42c.11-.41.23-.91.36-1.49l0-.21c.08-.39.18-.83.29-1.28l.21-.87.87-.21c.45-.12.89-.21,1.28-.3l.2,0,1.49-.35.42-.11.11-.43c.1-.39.22-.89.35-1.48l0-.2a17.24,17.24,0,0,1,1.81-5.24,10.35,10.35,0,0,1,3.68-3.43l.47-.3c1.57-1,1.69-1.1,1.74-1.51a.17.17,0,0,1,0-.07v0a.75.75,0,0,0,0-.2l-.11-.38.11-.38A.63.63,0,0,0,53.41,26.21Zm-4.66,1.85a9.1,9.1,0,0,0-3.24,3.13,15.13,15.13,0,0,0-1.81,6.06l-.15,1.14-1.14.15a22.09,22.09,0,0,0-2.92.54l-.42.11-.11.42a23.18,23.18,0,0,0-.54,2.93l-.15,1.14-1.13.14a15.18,15.18,0,0,0-6,1.82A9.11,9.11,0,0,0,28,48.89L26.7,51.08l-1.28-2.19a9.11,9.11,0,0,0-3.12-3.25,15.23,15.23,0,0,0-6-1.82l-1.14-.14L15,42.54a21.63,21.63,0,0,0-.54-2.93l-.11-.42-.42-.11A22.28,22.28,0,0,0,11,38.54l-1.13-.15-.15-1.14a15.32,15.32,0,0,0-1.82-6.06,9,9,0,0,0-3.24-3.13L2.47,26.78,4.65,25.5A9.05,9.05,0,0,0,7.9,22.37a15.41,15.41,0,0,0,1.81-6.06l.15-1.14L11,15a22.5,22.5,0,0,0,2.91-.55l.42-.11.11-.42A22.39,22.39,0,0,0,15,11l.15-1.14,1.14-.15a15.23,15.23,0,0,0,6-1.82,9,9,0,0,0,3.12-3.25L26.7,2.48,28,4.67A9,9,0,0,0,31.1,7.92a15.18,15.18,0,0,0,6,1.82l1.13.15L38.42,11A24.21,24.21,0,0,0,39,14l.11.42.42.11a22.3,22.3,0,0,0,2.92.55l1.14.14.15,1.14a15.09,15.09,0,0,0,1.81,6.06,9,9,0,0,0,3.24,3.13l2.18,1.28Z"/></g></g></svg>