<svg xmlns="http://www.w3.org/2000/svg" xmlns:xlink="http://www.w3.org/1999/xlink" viewBox="0 0 1014.24 1347.96">
<defs>
<linearGradient id="Безымянный_градиент_9" x1="201.54" y1="1322.79" x2="279.5" y2="1322.79" gradientUnits="userSpaceOnUse">
<stop offset="0" stop-color="#f6e29b"/>
<stop offset="1" stop-color="#fabd60"/>
</linearGradient>
<linearGradient id="Безымянный_градиент_9-2" x1="308.27" y1="1322.79" x2="403.39" y2="1322.79" xlink:href="#Безымянный_градиент_9"/>
<linearGradient id="Безымянный_градиент_9-3" x1="436.65" y1="1322.79" x2="512.1" y2="1322.79" xlink:href="#Безымянный_градиент_9"/>
<linearGradient id="Безымянный_градиент_57" x1="665.56" y1="1309.99" x2="751.5" y2="1309.99" gradientUnits="userSpaceOnUse">
<stop offset="0" stop-color="#fffefd"/>
<stop offset="0.19" stop-color="#e6e5e5"/>
<stop offset="0.55" stop-color="#bfbebe"/>
<stop offset="0.83" stop-color="#a6a6a6"/>
<stop offset="1" stop-color="#9d9d9d"/>
</linearGradient>
<linearGradient id="Безымянный_градиент_57-2" x1="786.94" y1="1322.79" x2="861.86" y2="1322.79" xlink:href="#Безымянный_градиент_57"/>
<linearGradient id="Безымянный_градиент_57-3" x1="898.09" y1="1322.79" x2="980.8" y2="1322.79" xlink:href="#Безымянный_градиент_57"/>
<linearGradient id="Безымянный_градиент_57-4" x1="1025.95" y1="1309.99" x2="1104.63" y2="1309.99" xlink:href="#Безымянный_градиент_57"/>
<linearGradient id="Безымянный_градиент_57-5" x1="1135.38" y1="1322.79" x2="1215.78" y2="1322.79" xlink:href="#Безымянный_градиент_57"/>
<linearGradient id="Безымянный_градиент_57-6" x1="546.48" y1="1335.27" x2="622.73" y2="1335.27" xlink:href="#Безымянный_градиент_57"/>
<linearGradient id="Безымянный_градиент_9-4" x1="805.65" y1="460.44" x2="1151.15" y2="460.44" xlink:href="#Безымянный_градиент_9"/>
<linearGradient id="Безымянный_градиент_9-5" x1="266.18" y1="460.44" x2="611.68" y2="460.44" xlink:href="#Безымянный_градиент_9"/>
<linearGradient id="Безымянный_градиент_11" x1="316.33" y1="924.34" x2="697.91" y2="924.34" gradientUnits="userSpaceOnUse">
<stop offset="0" stop-color="#9d9d9d"/>
<stop offset="1" stop-color="#4d4d4d"/>
</linearGradient>
<linearGradient id="Безымянный_градиент_11-2" x1="356.44" y1="1000.32" x2="657.8" y2="1000.32" xlink:href="#Безымянный_градиент_11"/>
<linearGradient id="Безымянный_градиент_11-3" x1="396.54" y1="1076.28" x2="617.7" y2="1076.28" xlink:href="#Безымянный_градиент_11"/>
<linearGradient id="Безымянный_градиент_9-6" x1="497.71" y1="460.44" x2="603.62" y2="460.44" xlink:href="#Безымянный_градиент_9"/>
<linearGradient id="Безымянный_градиент_9-7" x1="642.71" y1="460.44" x2="771.93" y2="460.44" xlink:href="#Безымянный_градиент_9"/>
<linearGradient id="Безымянный_градиент_9-8" x1="817.11" y1="460.44" x2="919.61" y2="460.44" xlink:href="#Безымянный_градиент_9"/>
</defs>
<g id="Слой_1" data-name="Слой 1">
<path d="M275.9,1318.6q-3.58-3.49-13.83-3.5h-43.5v-15h45.68V1308l14.32-3.37v-1.45q0-8.58-3.72-12t-13.57-3.37h-39.6q-10.17,0-13.74,3.5t-3.56,13v7.72q0,9.51,3.56,13t13.74,3.5h43.5v15.91H215.87v-8.25l-14.33,3v1.92q0,9.49,3.6,13t13.83,3.5h43.1q10.24,0,13.83-3.5t3.6-13v-9.58Q279.5,1322.11,275.9,1318.6Z" transform="translate(-201.54 -34.68)" fill="url(#Безымянный_градиент_9)"/>
<path d="M363.39,1287.9H347.75l-39.48,69.78h16.17l8.12-15.25h44.23l8.38,15.25h18.22Zm-23.9,41.92L355,1301.44l15.05,28.38Z" transform="translate(-201.54 -34.68)" fill="url(#Безымянный_градиент_9-2)"/>
<path d="M508.37,1291.11q-3.72-3.21-12-3.21H436.65v69.78h16v-27.2h43.7q8.31,0,12-3.2c2.49-2.13,3.73-5.56,3.73-10.26v-15.58Q512.1,1294.3,508.37,1291.11Zm-11.91,21.81c0,2.07-.52,3.51-1.55,4.33s-3,1.22-5.78,1.22h-36.5V1300h36.5c2.82,0,4.74.41,5.78,1.23s1.55,2.23,1.55,4.25Z" transform="translate(-201.54 -34.68)" fill="url(#Безымянный_градиент_9-3)"/>
<path d="M747.94,1291.4q-3.57-3.5-13.73-3.5H682.85q-10.15,0-13.73,3.5t-3.56,13v36.77q0,9.57,3.56,13t13.73,3.47h51.36q10.17,0,13.73-3.47t3.56-13v-36.77Q751.5,1294.9,747.94,1291.4Zm-12.61,53.14H681.79v-44.16h53.54Zm-44.75-82.25v15.12H704v-15.12Zm22.44,0v15.12h13.46v-15.12Z" transform="translate(-201.54 -34.68)" fill="url(#Безымянный_градиент_57)"/>
<path d="M861.86,1287.9h-70v12.48h43.89l-48.78,49.71v7.59h74.92v-13.14H812.35l49.51-49.71Z" transform="translate(-201.54 -34.68)" fill="url(#Безымянный_градиент_57-2)"/>
<path d="M980.8,1305.33v-1.58q0-9-3.63-12.41t-13.66-3.44H915.39q-10.17,0-13.73,3.5t-3.57,13v36.77q0,9.57,3.57,13t13.73,3.47h48.12q10.17,0,13.73-3.47t3.56-13v-24H938.49V1329H965v15.51h-50.7v-44.16H965v7.79Z" transform="translate(-201.54 -34.68)" fill="url(#Безымянный_градиент_57-3)"/>
<path d="M1088.46,1287.9v56.64h-46.28V1287.9H1026v53.28q0,9.57,3.59,13t13.7,3.47h44.1q10.15,0,13.73-3.47t3.56-13V1287.9Zm-41.13-25.61v15.12h13.47v-15.12Zm22.45,0v15.12h13.46v-15.12Z" transform="translate(-201.54 -34.68)" fill="url(#Безымянный_градиент_57-4)"/>
<path d="M1135.38,1287.9v12.48h32v57.3h16.24v-57.3h32.14V1287.9Z" transform="translate(-201.54 -34.68)" fill="url(#Безымянный_градиент_57-5)"/>
<path d="M622.73,1311v-6.6q0-9.51-3.6-13t-13.7-3.5H563.78q-10.17,0-13.73,3.5t-3.57,13v36.76q0,9.58,3.57,13t13.73,3.47h18v10.73c.25,0,.61,0,1.1-.06l1,0a12.26,12.26,0,0,1,5.7,1,3.39,3.39,0,0,1,1.78,3.2,3.34,3.34,0,0,1-1.44,2.93,7.42,7.42,0,0,1-4.21,1,36.16,36.16,0,0,1-5.73-.55,77,77,0,0,1-7.67-1.7v6.23a74.51,74.51,0,0,0,7.75,1.67,41.56,41.56,0,0,0,6.49.58q6.29,0,9.68-2.59a8.7,8.7,0,0,0,3.4-7.35q0-5.13-3-7.62c-2-1.65-5.13-2.48-9.32-2.48h-.84v-4.92h19q10.1,0,13.7-3.47t3.6-13v-8.25l-16.24-3.36v15H562.72v-44.16h43.77v13.2Z" transform="translate(-201.54 -34.68)" fill="url(#Безымянный_градиент_57-6)"/>
<path d="M1123.57,532.38,805.65,886.21V772.58l280.47-312.14L805.65,148.3V34.68l317.92,353.83A107.61,107.61,0,0,1,1123.57,532.38Z" transform="translate(-201.54 -34.68)" fill="url(#Безымянный_градиент_9-4)"/>
<path d="M611.68,148.3,331.21,460.44,611.68,772.58V886.21L293.75,532.38a107.63,107.63,0,0,1,0-143.87L611.68,34.68Z" transform="translate(-201.54 -34.68)" fill="url(#Безымянный_градиент_9-5)"/>
<rect x="316.33" y="905.36" width="381.58" height="37.97" rx="18.98" fill="url(#Безымянный_градиент_11)"/>
<rect x="356.44" y="981.33" width="301.37" height="37.97" rx="18.98" fill="url(#Безымянный_градиент_11-2)"/>
<rect x="396.54" y="1057.3" width="221.16" height="37.97" rx="18.98" fill="url(#Безымянный_градиент_11-3)"/>
<path d="M598.73,454.75Q593.86,450,579.94,450H520.85V429.64h62.06V440.4l19.45-4.57v-2c0-7.76-1.68-13.18-5.06-16.22s-9.53-4.58-18.43-4.58h-53.8q-13.82,0-18.66,4.75t-4.84,17.67V446q0,12.92,4.84,17.67t18.66,4.75h59.09V490h-67V478.78l-19.46,4v2.6q0,12.91,4.89,17.67t18.79,4.75h58.55q13.9,0,18.79-4.75t4.89-17.67v-13Q603.62,459.51,598.73,454.75Z" transform="translate(-201.54 -34.68)" fill="url(#Безымянный_градиент_9-6)"/>
<path d="M717.58,413.05H696.33l-53.62,94.79h22l11-20.72h60.08l11.39,20.72h24.75ZM685.12,470l21.08-38.56L726.64,470Z" transform="translate(-201.54 -34.68)" fill="url(#Безымянный_градиент_9-7)"/>
<path d="M914.55,417.4q-5.07-4.35-16.37-4.35H817.11v94.79h21.7V470.89h59.37q11.3,0,16.37-4.35t5.06-13.94V431.43Q919.61,421.76,914.55,417.4ZM898.36,447c0,2.81-.7,4.76-2.11,5.87s-4,1.66-7.85,1.66H838.81V429.46H888.4c3.83,0,6.45.56,7.85,1.66s2.11,3,2.11,5.78Z" transform="translate(-201.54 -34.68)" fill="url(#Безымянный_градиент_9-8)"/>
</g>
</svg>