<svg id="Слой_1" data-name="Слой 1" xmlns="http://www.w3.org/2000/svg" viewBox="0 0 271.51 336.03"><defs><style>.cls-1{fill:#d8d8d8;}</style></defs><path class="cls-1" d="M627.3,484.68,529.76,593.23V558.37l86-95.76-86-95.77V332L627.3,440.54A33,33,0,0,1,627.3,484.68Z" transform="translate(-364.25 -331.99)"/><path class="cls-1" d="M470.24,366.84l-86,95.77,86,95.76v34.86L372.7,484.68a33,33,0,0,1,0-44.14L470.24,332Z" transform="translate(-364.25 -331.99)"/><rect class="cls-1" x="77.22" y="277.76" width="117.07" height="11.65" rx="5.82"/><rect class="cls-1" x="89.52" y="301.07" width="92.46" height="11.65" rx="5.82"/><rect class="cls-1" x="101.83" y="324.38" width="67.85" height="11.65" rx="5.82"/><path class="cls-1" d="M466.27,460.86q-1.5-1.46-5.76-1.45H442.38v-6.25h19v3.3l6-1.4v-.61q0-3.57-1.56-5c-1-.93-2.92-1.4-5.65-1.4H443.67q-4.23,0-5.72,1.46T436.46,455v3.22c0,2.64.5,4.44,1.49,5.42s2.9,1.46,5.72,1.46H461.8v6.62H441.25v-3.43l-6,1.23v.8q0,4,1.5,5.42t5.76,1.46h18q4.26,0,5.76-1.46t1.5-5.42v-4C467.77,463.64,467.27,461.84,466.27,460.86Z" transform="translate(-364.25 -331.99)"/><path class="cls-1" d="M502.74,448.07h-6.52l-16.46,29.08h6.74l3.39-6.36h18.43l3.5,6.36h7.59Zm-10,17.47,6.46-11.83,6.28,11.83Z" transform="translate(-364.25 -331.99)"/><path class="cls-1" d="M563.17,449.4q-1.56-1.33-5-1.33H533.27v29.08h6.66V465.81h18.21q3.47,0,5-1.33a5.36,5.36,0,0,0,1.55-4.28v-6.49A5.42,5.42,0,0,0,563.17,449.4Zm-5,9.1a2.18,2.18,0,0,1-.65,1.8,4.06,4.06,0,0,1-2.4.51H539.93V453.1h15.22a4.06,4.06,0,0,1,2.4.51,2.14,2.14,0,0,1,.65,1.78Z" transform="translate(-364.25 -331.99)"/></svg>