<svg id="akhasap_1" data-name="akhasap 1" xmlns="http://www.w3.org/2000/svg" viewBox="0 0 108.25 108.25">
<defs>
<style>.akhasap-1{fill:#00aeef;fill-rule:evenodd;}.akhasap-2{fill:#ef7f1a;}
</style>
</defs>
<path class="akhasap-1" d="M250.48,195.66a54.13,54.13,0,1,1-54.13,54.12,54.13,54.13,0,0,1,54.13-54.12Zm24.7,92.94V243.37c0-7.5-1.83-15.06-7.74-20.12a26.76,26.76,0,0,0-12.71-5.77,35.25,35.25,0,0,1,18,7.82c7.8,6.67,10.59,16.34,10.59,26.3V282a46,46,0,0,0-58.13-70.65c-.08,8.64-.69,19.21,3.52,27l1.93,3.59a20.27,20.27,0,0,0-9.08,17.26c0,11,5.83,17.38,14,20.47-17.39-5.85-28.71-21.87-15.06-39.55-3.12-6.64-3.38-14.64-3.38-22a46,46,0,0,0,58.07,70.49Z" transform="translate(-196.35 -195.66)"/>
<path class="akhasap-2" d="M256,251.73c-5.73-.95-15.71-1.2-15.71,6.91,0,5.77,4.86,7.06,9.71,7l6,10.76V251.73Zm0-10.3c0-6.72-5.46-7.7-11-7.7a35.36,35.36,0,0,0-11.5,2.1,21,21,0,0,1-2.81-10.41c10-3.41,24.66-5.25,33.27,2.1q5.85,5,5.85,16v30A66,66,0,0,1,250,276.65c-11.7,0-23-3.81-23-17.41,0-8.88,6.38-14.31,14.61-16.06a48.69,48.69,0,0,1,14.41-.55v-1.2Z" transform="translate(-196.35 -195.66)"/>
</svg>