
<svg id="Слой_1" data-name="Слой 1" xmlns="http://www.w3.org/2000/svg" xmlns:xlink="http://www.w3.org/1999/xlink" viewBox="0 0 468.11 468">
<defs>
<style>.saphasap_icon{fill:url(#saphasap_gradient);}
</style>
<radialGradient id="saphasap_gradient" cx="250.05" cy="250.06" r="215.65" gradientTransform="translate(426.87 -56.2) rotate(75)" gradientUnits="userSpaceOnUse">
<stop offset="0" stop-color="#efe09c"/>
<stop offset="0.99" stop-color="#e9bb66"/>
</radialGradient>
</defs>
<rect class="saphasap_icon" x="68.54" y="68.4" width="363.02" height="363.32" rx="30" ry="30" transform="translate(-72.15 410.87) rotate(-75)"/>
<path d="M479,283.65,444.8,224.4l-6.91,25.74,24.79,42.94a18.93,18.93,0,0,1-6.9,25.75L206.72,462.63A18.92,18.92,0,0,1,181,455.72L156.1,412.66l-25.75-6.89,34.29,59.38a37.41,37.41,0,0,0,22.9,17.54,38,38,0,0,0,9.88,1.31,37.44,37.44,0,0,0,18.73-5l249.06-143.8A37.8,37.8,0,0,0,479,283.65Z" transform="translate(-15.95 -16)"/>
<path d="M37.32,206.92a18.93,18.93,0,0,1,6.9-25.75L293.28,37.37a18.61,18.61,0,0,1,9.34-2.51,19.22,19.22,0,0,1,5,.66A18.73,18.73,0,0,1,319,44.27l24.85,43,25.76,6.9L335.36,34.85A37.79,37.79,0,0,0,283.85,21L34.79,164.84A37.8,37.8,0,0,0,21,216.35l34.17,59.18L62,249.71Z" transform="translate(-15.95 -16)"/>
<path d="M233.86,303.42a28.41,28.41,0,0,0,4.6-1.47,20.1,20.1,0,0,0,8-6.67,20.71,20.71,0,0,0,3.78-10.6,18.36,18.36,0,0,0-4.77-13.62,20.24,20.24,0,0,0-7.14-5.1,25.48,25.48,0,0,0-9.63-1.82c-9.63-.16-19.28,0-28.91,0-2.69,0-3.8.13-8.07,0a49.86,49.86,0,0,1-11.66-1.89,45.3,45.3,0,0,1-6.35-2.46,52,52,0,0,1-14.62-10.29,41.93,41.93,0,0,1-11.55-18.37,55,55,0,0,1-2.6-16.43c.32-20.92,12.28-38.07,31.81-45.58,8.06-3.1,15.57-2.84,24-2.8l27.2.13,47.65.22H278l-13.88,28.84H203.94c-9.56,0-19.16.54-25.29,8.95-4.45,6.1-4.49,14.24-1.08,20.81,4.43,8.5,12.59,10.24,21.63,10.24h14.85c7.71,0,14.21.12,21.93.12.14,0,2.63.45,2.78.45s41.65,7.43,39.78,50-44.39,47.4-44.39,47.4l-89.52.24L160,303.85c3,0,6,0,9,0,7,0,13.92,0,20.89,0,14,0,25.41-.09,39.37,0A28.64,28.64,0,0,0,233.86,303.42Z" transform="translate(-15.95 -16)"/>
<path d="M235.26,201.38h28.83v34.26h63.09V166.26h28.19v166.5h-28V263.39H281.22S270,232.6,235,229.13Z" transform="translate(-15.95 -16)"/>
</svg>