<svg id="Слой_1" data-name="Слой 1" xmlns="http://www.w3.org/2000/svg" xmlns:xlink="http://www.w3.org/1999/xlink" viewBox="0 0 770.23 833.72"><defs><style>.cls-1{fill:#dadef2;}.cls-14,.cls-16,.cls-2,.cls-22,.cls-34,.cls-40,.cls-41,.cls-42,.cls-43,.cls-44,.cls-45,.cls-48,.cls-52,.cls-54,.cls-58,.cls-61{fill:none;stroke-miterlimit:10;stroke-width:10px;}.cls-2{stroke:#99a7e0;}.cls-3{fill:#607d8b;}.cls-4{fill:#455a64;}.cls-5{fill:#3f51b5;}.cls-6{fill:#c5cae9;}.cls-7{fill:#42257a;}.cls-8{fill:#b388ff;}.cls-9{fill:#ceb8ff;}.cls-10{fill:#7986cb;}.cls-11{fill:#abd7ef;}.cls-12{fill:#1565c0;}.cls-13{fill:#2196f3;}.cls-14{stroke:#1565c0;}.cls-15{fill:#b5d8e5;}.cls-16{stroke:#ff9800;}.cls-17{fill:#546e7a;}.cls-18{fill:#bbdefb;}.cls-19{fill:#b0bec5;}.cls-20{fill:#ffc107;}.cls-21{fill:#bfbfbf;}.cls-22{stroke:#18ffff;}.cls-23{fill:#616161;}.cls-24{fill:#424242;}.cls-25{fill:#242424;}.cls-26{fill:#90caf9;}.cls-27{fill:#42a5f5;}.cls-28{fill:#18ffff;}.cls-29{fill:#cfecff;}.cls-30{fill:#e57373;}.cls-31{fill:#ff9800;}.cls-32{fill:#37474f;}.cls-33{fill:#ffcae0;}.cls-34{stroke:#c2185b;}.cls-35{fill:#cfd8dc;}.cls-36{fill:#c2185b;}.cls-37{fill:#e91e63;}.cls-38{fill:#90a4ae;}.cls-39{fill:#f5deff;}.cls-40{stroke:url(#Безымянный_градиент_13);}.cls-41{stroke:url(#Безымянный_градиент_66);}.cls-42{stroke:url(#Безымянный_градиент_56);}.cls-43{stroke:url(#Безымянный_градиент_126);}.cls-44{stroke:url(#Безымянный_градиент_13-2);}.cls-45{stroke:url(#Безымянный_градиент_116);}.cls-46{fill:url(#Безымянный_градиент_13-3);}.cls-47{fill:#ffe8d7;}.cls-48{stroke:#00aeef;}.cls-49{fill:#00aeef;fill-rule:evenodd;}.cls-50{fill:#ef7f1a;}.cls-51{fill:#b8c6ff;}.cls-52{stroke:#2196f3;}.cls-53{fill:#ffe9cc;}.cls-54{stroke:#455a64;}.cls-55{fill:#e89531;}.cls-56{fill:#ffb74d;}.cls-57{fill:#c5ffc5;}.cls-58{stroke:#4caf50;}.cls-59{fill:#4caf50;}.cls-60{fill:#cfedf9;}.cls-61{stroke:#fbc02d;}.cls-62{fill:#fff59d;}.cls-63{fill:#fbc02d;}.cls-64{fill:#283593;}.cls-65{fill:#fff;}.cls-66{fill:#5c6bc0;}.cls-67{fill:url(#Безымянный_градиент_15);}.cls-68{fill:url(#Безымянный_градиент_15-2);}.cls-69{fill:url(#Безымянный_градиент_16);}.cls-70{fill:url(#Безымянный_градиент_16-2);}.cls-71{fill:url(#Безымянный_градиент_16-3);}.cls-72{fill:url(#Безымянный_градиент_15-3);}.cls-73{fill:url(#Безымянный_градиент_15-4);}.cls-74{fill:url(#Безымянный_градиент_15-5);}.cls-75{fill:url(#Безымянный_градиент_57);}.cls-76{fill:url(#Безымянный_градиент_57-2);}.cls-77{fill:url(#Безымянный_градиент_57-3);}.cls-78{fill:url(#Безымянный_градиент_57-4);}.cls-79{fill:url(#Безымянный_градиент_57-5);}.cls-80{fill:url(#Безымянный_градиент_57-6);}</style><linearGradient id="Безымянный_градиент_13" x1="569.03" y1="627.79" x2="625.82" y2="627.79" gradientUnits="userSpaceOnUse"><stop offset="0" stop-color="#1a6dff"/><stop offset="1" stop-color="#c822ff"/></linearGradient><linearGradient id="Безымянный_градиент_66" x1="2552.2" y1="-3389.01" x2="2648.47" y2="-3389.01" gradientTransform="translate(3129.89 -2643.66) rotate(180)" gradientUnits="userSpaceOnUse"><stop offset="0" stop-color="#1a6dff"/><stop offset="0.33" stop-color="#4c57ff"/><stop offset="0.43" stop-color="#a630ff"/><stop offset="0.61" stop-color="#b729ff"/><stop offset="0.81" stop-color="#c424ff"/><stop offset="1" stop-color="#c822ff"/></linearGradient><linearGradient id="Безымянный_градиент_56" x1="433.28" y1="706.16" x2="490.08" y2="706.16" gradientUnits="userSpaceOnUse"><stop offset="0" stop-color="#1a6dff"/><stop offset="0.56" stop-color="#a332ff"/><stop offset="0.69" stop-color="#a531ff"/><stop offset="0.74" stop-color="#ac2eff"/><stop offset="0.78" stop-color="#b729ff"/><stop offset="0.8" stop-color="#c822ff"/></linearGradient><linearGradient id="Безымянный_градиент_126" x1="2552.2" y1="-3545.75" x2="2648.47" y2="-3545.75" gradientTransform="translate(3129.89 -2957.15) rotate(180)" gradientUnits="userSpaceOnUse"><stop offset="0.15" stop-color="#3163ff"/><stop offset="0.2" stop-color="#1a6dff"/><stop offset="0.87" stop-color="#a431ff"/><stop offset="1" stop-color="#c822ff"/></linearGradient><linearGradient id="Безымянный_градиент_13-2" x1="569.03" y1="706.16" x2="625.82" y2="706.16" xlink:href="#Безымянный_градиент_13"/><linearGradient id="Безымянный_градиент_116" x1="433.28" y1="627.79" x2="490.08" y2="627.79" gradientUnits="userSpaceOnUse"><stop offset="0" stop-color="#1a6dff"/><stop offset="0.75" stop-color="#b12cff"/></linearGradient><linearGradient id="Безымянный_градиент_13-3" x1="561.13" y1="747.04" x2="666.95" y2="747.04" xlink:href="#Безымянный_градиент_13"/><linearGradient id="Безымянный_градиент_15" x1="504.23" y1="448.45" x2="627.47" y2="448.45" gradientUnits="userSpaceOnUse"><stop offset="0" stop-color="#f6e29b"/><stop offset="1" stop-color="#fabd60"/></linearGradient><linearGradient id="Безымянный_градиент_15-2" x1="311.8" y1="448.45" x2="435.04" y2="448.45" xlink:href="#Безымянный_градиент_15"/><linearGradient id="Безымянный_градиент_16" x1="317.09" y1="551.23" x2="453.21" y2="551.23" gradientUnits="userSpaceOnUse"><stop offset="0" stop-color="#9d9d9d"/><stop offset="1" stop-color="#4d4d4d"/></linearGradient><linearGradient id="Безымянный_градиент_16-2" x1="331.4" y1="578.34" x2="438.9" y2="578.34" xlink:href="#Безымянный_градиент_16"/><linearGradient id="Безымянный_градиент_16-3" x1="345.71" y1="605.43" x2="424.59" y2="605.43" xlink:href="#Безымянный_градиент_16"/><linearGradient id="Безымянный_градиент_15-3" x1="384.09" y1="437.78" x2="427.04" y2="437.78" xlink:href="#Безымянный_градиент_15"/><linearGradient id="Безымянный_градиент_15-4" x1="442.89" y1="437.78" x2="495.29" y2="437.78" xlink:href="#Безымянный_градиент_15"/><linearGradient id="Безымянный_градиент_15-5" x1="513.61" y1="437.78" x2="555.18" y2="437.78" xlink:href="#Безымянный_градиент_15"/><linearGradient id="Безымянный_градиент_57" x1="414.53" y1="474.17" x2="436.5" y2="474.17" gradientUnits="userSpaceOnUse"><stop offset="0" stop-color="#fffefd"/><stop offset="0.19" stop-color="#e6e5e5"/><stop offset="0.55" stop-color="#bfbebe"/><stop offset="0.83" stop-color="#a6a6a6"/><stop offset="1" stop-color="#9d9d9d"/></linearGradient><linearGradient id="Безымянный_градиент_57-2" x1="445.56" y1="477.86" x2="464.71" y2="477.86" xlink:href="#Безымянный_градиент_57"/><linearGradient id="Безымянный_градиент_57-3" x1="473.97" y1="477.86" x2="495.11" y2="477.86" xlink:href="#Безымянный_градиент_57"/><linearGradient id="Безымянный_градиент_57-4" x1="506.65" y1="474.17" x2="526.77" y2="474.17" xlink:href="#Безымянный_градиент_57"/><linearGradient id="Безымянный_градиент_57-5" x1="534.62" y1="477.86" x2="555.18" y2="477.86" xlink:href="#Безымянный_градиент_57"/><linearGradient id="Безымянный_градиент_57-6" x1="384.09" y1="481.46" x2="403.58" y2="481.46" xlink:href="#Безымянный_градиент_57"/></defs><polygon class="cls-1" points="770.23 416.86 722.09 333.49 625.82 333.49 577.69 416.86 625.82 500.23 722.09 500.23 770.23 416.86"/><line class="cls-2" x1="717.76" y1="335.99" x2="765.9" y2="419.36"/><line class="cls-2" x1="765.9" y1="414.36" x2="717.76" y2="497.73"/><line class="cls-2" x1="722.09" y1="495.23" x2="625.82" y2="495.23"/><line class="cls-2" x1="630.15" y1="497.73" x2="582.02" y2="414.36"/><line class="cls-2" x1="582.02" y1="419.36" x2="630.15" y2="335.99"/><line class="cls-2" x1="625.82" y1="338.49" x2="722.09" y2="338.49"/><g id="surface1"><path class="cls-3" d="M802.51,526.68h-29a5.3,5.3,0,0,1-5.3-5.29V497.64h10.57v18.48h23.75Z" transform="translate(-84.49 -75.06)"/><path class="cls-4" d="M810.43,502.93h-2.65a5.3,5.3,0,0,0-5.27,5.27v26.4a5.3,5.3,0,0,0,5.27,5.27h2.65ZM784,476.53v15.84a10.56,10.56,0,1,1-21.11,0V476.53Z" transform="translate(-84.49 -75.06)"/><path class="cls-5" d="M704.85,479.7s-.79,10,9.51,12.94,8.7-20.34,8.7-20.34Z" transform="translate(-84.49 -75.06)"/><path class="cls-6" d="M797,481.28l-63.07,29-17.69-35.63,64.65-29Z" transform="translate(-84.49 -75.06)"/><path class="cls-6" d="M800.14,458.32c4.47,9.77,2.89,20.07-3.44,23s-14.77-2.89-19.25-12.67-2.92-20.06,3.41-23C787,442.76,795.66,448.55,800.14,458.32Z" transform="translate(-84.49 -75.06)"/><path class="cls-7" d="M736,487.89c4.48,9.75,3.44,19.79-2.37,22.41s-14-3.41-18.21-13.18-3.44-19.8,2.37-22.45S731.77,477.84,736,487.89Z" transform="translate(-84.49 -75.06)"/><path class="cls-8" d="M731,490.26c-2.89-6.33-7.37-10.29-10.29-9.25s-2.9,7.4,0,13.73S728.09,505,731,504C733.9,502.66,733.9,496.6,731,490.26Z" transform="translate(-84.49 -75.06)"/><path class="cls-9" d="M727.81,494.22a2.59,2.59,0,0,1-2.37-1.58,11,11,0,0,0-2.1-3.44,2.51,2.51,0,0,1-2.38-1.59,2.64,2.64,0,0,1,1.31-3.43c1.07-.52,2.92-.8,5,1.85a14.88,14.88,0,0,1,2.89,4.48,2.61,2.61,0,0,1-1.31,3.44A1.58,1.58,0,0,1,727.81,494.22Z" transform="translate(-84.49 -75.06)"/><path class="cls-10" d="M780.61,445.65,704.85,479.7s13.46-4.23,31.95,9.5c16.35-7.13,63.61-29.57,63.61-29.57-.27-.25-.27-.79-.55-1C795.66,448.55,787,442.76,780.61,445.65Z" transform="translate(-84.49 -75.06)"/></g><polygon class="cls-11" points="770.23 250.12 722.09 166.74 625.82 166.74 577.69 250.12 625.82 333.49 722.09 333.49 770.23 250.12"/><g id="surface1-2" data-name="surface1"><path class="cls-12" d="M715.53,330.86H710.2c0-10.68,3.73-19.76,11.21-26.69,20.53-19.21,61.9-16.28,63.75-16l-.25,5.33c-.55,0-40.82-2.65-59.78,14.68C718.73,314.05,715.53,321.78,715.53,330.86Z" transform="translate(-84.49 -75.06)"/><path class="cls-12" d="M738.21,357.52a28,28,0,1,1,28-28A28,28,0,0,1,738.21,357.52Zm0-50.67a22.67,22.67,0,1,0,22.69,22.66A22.66,22.66,0,0,0,738.21,306.85Z" transform="translate(-84.49 -75.06)"/><path class="cls-12" d="M748.89,357.52a28,28,0,1,1,28-28A28,28,0,0,1,748.89,357.52Zm0-50.67a22.67,22.67,0,1,0,22.66,22.66A22.64,22.64,0,0,0,748.89,306.85Z" transform="translate(-84.49 -75.06)"/><path class="cls-12" d="M800.91,351.91c-7.75,4.56-23,11-48,11-36.81,0-37.36-30.69-37.36-32H710.2c0,.25.53,37.34,42.69,37.34,23.74,0,38.94-5.33,48-10.13a23.38,23.38,0,0,0,5.33-3.48v-7.2A29.35,29.35,0,0,1,800.91,351.91Zm5.33-69.07-18.68-10.68-2.65,4.52,10.65,6.16Z" transform="translate(-84.49 -75.06)"/><path class="cls-13" d="M782.23,282.84h24v16h-24Zm-61.35,49.07V327.1a28,28,0,0,1,25.34-25.61c-.8,0-1.88-.25-2.68-.25a28.41,28.41,0,0,0-28,28.27,28,28,0,0,0,28,28,9.75,9.75,0,0,0,2.68-.25C732.89,356.19,722.21,345.26,720.88,331.91Zm28-25.06a9.68,9.68,0,0,0-2.67.25,22.55,22.55,0,0,1,0,44.81c.8,0,1.87.28,2.67.28a23,23,0,0,0,22.66-20.28V327.1A23,23,0,0,0,748.89,306.85Z" transform="translate(-84.49 -75.06)"/></g><line class="cls-14" x1="717.76" y1="169.24" x2="765.9" y2="252.62"/><line class="cls-14" x1="765.9" y1="247.62" x2="717.76" y2="330.99"/><line class="cls-14" x1="722.09" y1="328.49" x2="625.82" y2="328.49"/><line class="cls-14" x1="630.15" y1="330.99" x2="582.02" y2="247.62"/><line class="cls-14" x1="582.02" y1="252.62" x2="630.15" y2="169.24"/><line class="cls-14" x1="625.82" y1="171.74" x2="722.09" y2="171.74"/><polygon class="cls-15" points="625.82 166.74 577.69 83.37 481.42 83.37 433.28 166.74 481.42 250.12 577.69 250.12 625.82 166.74"/><line class="cls-16" x1="573.36" y1="85.87" x2="621.49" y2="169.24"/><line class="cls-16" x1="621.49" y1="164.24" x2="573.36" y2="247.62"/><line class="cls-16" x1="577.69" y1="245.12" x2="481.42" y2="245.12"/><line class="cls-16" x1="485.75" y1="247.62" x2="437.61" y2="164.24"/><line class="cls-16" x1="437.61" y1="169.24" x2="485.75" y2="85.87"/><line class="cls-16" x1="481.42" y1="88.37" x2="577.69" y2="88.37"/><g id="surface1-3" data-name="surface1"><path class="cls-17" d="M558.63,199H662.78v75.21H558.63Z" transform="translate(-84.49 -75.06)"/><path class="cls-18" d="M564.42,204.74H657v60.75H564.42Z" transform="translate(-84.49 -75.06)"/><path class="cls-4" d="M602,274.16h17.35v8.68H602Zm34.71,8.68H584.67c-5.79,0-5.79,5.79-5.79,5.79v2.89h63.65v-2.89S642.53,282.84,636.74,282.84Z" transform="translate(-84.49 -75.06)"/><path class="cls-13" d="M607.81,236.56H587.58v14.25l20.23,2.57Zm2.89,0v17.2l23.14,3.05V236.56ZM607.81,217l-20.25,2.6,0,14.1h20.23Zm2.89-.39v17.09h23.14V213.41Z" transform="translate(-84.49 -75.06)"/></g><path class="cls-19" d="M665.83,286.12,628.37,249l-3.68-5.44-6.76-2.93-2.06,2,2.94,6.76,5.44,3.68,37.46,37.16Z" transform="translate(-84.49 -75.06)"/><path class="cls-3" d="M625.13,291.7c.15-.15,1.91-2.05,4.7-5,4.11-4.25,22-23.36,22.33-23.65,1.33-1.32,7.63,3.53,12.92-1.76,3.39-3.37,4.56-7.64,3.09-12.78l-6.75,6.76a8.14,8.14,0,0,1-7.35-7.35l6.76-6.61a12.63,12.63,0,0,0-12.93,3.08c-5.14,5.15-.58,11.61-1.91,12.93-.3.16-25.42,24.09-25.71,24.4-2.49,2.34-2.64,2.49-2.79,2.49a5.66,5.66,0,0,0-.14,7.78A5.54,5.54,0,0,0,625.13,291.7Zm-3.37-6.32a2.21,2.21,0,1,1-2.21,2.2A2.16,2.16,0,0,1,621.76,285.38Z" transform="translate(-84.49 -75.06)"/><path class="cls-20" d="M646,262.32c-3.08-7.35-4.84-3.38-8.37,0s-7.35,5.14,0,8.38c7.19,3.08,15.12,17.19,18.21,20.41s6.91,3.39,10.44,0c3.37-3.38,3.08-7.19,0-10.43C663.18,277.6,649.08,269.66,646,262.32Z" transform="translate(-84.49 -75.06)"/><polygon class="cls-21" points="770.23 583.6 722.09 500.23 625.82 500.23 577.69 583.6 625.82 666.98 722.09 666.98 770.23 583.6"/><line class="cls-22" x1="717.76" y1="502.73" x2="765.9" y2="586.1"/><line class="cls-22" x1="765.9" y1="581.1" x2="717.76" y2="664.48"/><line class="cls-22" x1="722.09" y1="661.98" x2="625.82" y2="661.98"/><line class="cls-22" x1="630.15" y1="664.48" x2="582.02" y2="581.1"/><line class="cls-22" x1="582.02" y1="586.1" x2="630.15" y2="502.73"/><line class="cls-22" x1="625.82" y1="505.23" x2="722.09" y2="505.23"/><g id="surface1-4" data-name="surface1"><path class="cls-23" d="M711.13,669.89h95.59V646a9.56,9.56,0,0,0-9.56-9.56H720.69a9.56,9.56,0,0,0-9.56,9.56Z" transform="translate(-84.49 -75.06)"/><path class="cls-24" d="M723.08,629.27h71.69v7.17H723.08Zm-2.39,69.3h76.47a9.56,9.56,0,0,0,9.56-9.56V669.89H711.13V689a9.56,9.56,0,0,0,9.56,9.56Z" transform="translate(-84.49 -75.06)"/><path class="cls-25" d="M791.18,686.62H726.66a3.59,3.59,0,0,1,0-7.17h64.52a3.59,3.59,0,1,1,0,7.17Z" transform="translate(-84.49 -75.06)"/><path class="cls-26" d="M727.86,617.32H790v19.12H727.86Zm0,69.3H790v21.51H727.86Z" transform="translate(-84.49 -75.06)"/><path class="cls-27" d="M727.86,681.84H790v4.78H727.86Z" transform="translate(-84.49 -75.06)"/><path class="cls-28" d="M769.4,657.91l6.21-5.11-3.31-5.86-8.25,2.54-1.69-8.26h-6.87l-1.7,8.31-8.32-2.5-3.27,5.89,6.24,5.06-6.21,5.11,3.32,5.86,8.24-2.54,1.7,8.26h6.87l1.7-8.31,8.32,2.5,3.27-5.89Zm-10.48,8.4a8.37,8.37,0,1,1,8.59-8.37A8.48,8.48,0,0,1,758.92,666.31Z" transform="translate(-84.49 -75.06)"/><path class="cls-28" d="M758.92,646a11.95,11.95,0,1,0,12,11.94A11.93,11.93,0,0,0,758.92,646Zm0,19.11a7.17,7.17,0,1,1,7.17-7.17A7.17,7.17,0,0,1,758.92,665.11Z" transform="translate(-84.49 -75.06)"/></g><polygon class="cls-29" points="336.94 666.98 288.81 583.6 192.54 583.6 144.4 666.98 192.54 750.35 288.81 750.35 336.94 666.98"/><line class="cls-16" x1="284.48" y1="586.1" x2="332.61" y2="669.48"/><line class="cls-16" x1="332.61" y1="664.48" x2="284.48" y2="747.85"/><line class="cls-16" x1="288.81" y1="745.35" x2="192.54" y2="745.35"/><line class="cls-16" x1="196.87" y1="747.85" x2="148.73" y2="664.48"/><line class="cls-16" x1="148.73" y1="669.48" x2="196.87" y2="586.1"/><line class="cls-16" x1="192.54" y1="588.6" x2="288.81" y2="588.6"/><g id="surface1-5" data-name="surface1"><path class="cls-27" d="M275.8,715.58l21.94-21.94,75.55,75.56-21.93,21.94Z" transform="translate(-84.49 -75.06)"/><path class="cls-12" d="M305.48,723.32,302,719.88l11-11,3.45,3.44Z" transform="translate(-84.49 -75.06)"/><path class="cls-12" d="M347.27,743.18l3.45,3.44-6.1,6.1-3.44-3.45Z" transform="translate(-84.49 -75.06)"/><path class="cls-12" d="M305.76,701.67l3.45,3.44-6.1,6.1-3.44-3.45Z" transform="translate(-84.49 -75.06)"/><path class="cls-12" d="M362,757.87l3.44,3.45-6.09,6.09L355.87,764Z" transform="translate(-84.49 -75.06)"/><path class="cls-12" d="M320.39,716.29l3.44,3.45-6.09,6.09-3.45-3.44Z" transform="translate(-84.49 -75.06)"/><path class="cls-12" d="M343.61,761.46l11-11,3.45,3.45-11,11Z" transform="translate(-84.49 -75.06)"/><path class="cls-30" d="M369.84,706l-8.9-8.89a3.46,3.46,0,0,0-4.91,0l-4.19,4.19,13.81,13.8,4.19-4.18a3.49,3.49,0,0,0,0-4.92Z" transform="translate(-84.49 -75.06)"/><path class="cls-31" d="M282.88,770.24l62.06-62.06L358.75,722l-62.06,62.06Z" transform="translate(-84.49 -75.06)"/><path class="cls-19" d="M365.64,715.09l-6.9,6.91-13.82-13.81,6.91-6.9Z" transform="translate(-84.49 -75.06)"/><path class="cls-20" d="M282.88,770.25l-4.64,18.45,18.45-4.65Z" transform="translate(-84.49 -75.06)"/><path class="cls-32" d="M280.59,779.37l-2.35,9.33,9.32-2.35Z" transform="translate(-84.49 -75.06)"/></g><polygon class="cls-33" points="336.94 166.74 288.81 83.37 192.54 83.37 144.4 166.74 192.54 250.12 288.81 250.12 336.94 166.74"/><line class="cls-34" x1="284.48" y1="85.87" x2="332.61" y2="169.24"/><line class="cls-34" x1="332.61" y1="164.24" x2="284.48" y2="247.62"/><line class="cls-34" x1="288.81" y1="245.12" x2="192.54" y2="245.12"/><line class="cls-34" x1="196.87" y1="247.62" x2="148.73" y2="164.24"/><line class="cls-34" x1="148.73" y1="169.24" x2="196.87" y2="85.87"/><line class="cls-34" x1="192.54" y1="88.37" x2="288.81" y2="88.37"/><g id="surface1-6" data-name="surface1"><path class="cls-32" d="M322.15,205.16H327v85h-4.86Z" transform="translate(-84.49 -75.06)"/><path class="cls-35" d="M276,205.16h97.15v70.43H276Z" transform="translate(-84.49 -75.06)"/><path class="cls-3" d="M375.58,214.87h-102v-9.71h102Zm0,58.29h-102V278h102Zm-55.86,17a4.86,4.86,0,1,0,4.86-4.85,4.87,4.87,0,0,0-4.86,4.85Z" transform="translate(-84.49 -75.06)"/><path class="cls-36" d="M302.72,229.44a17,17,0,1,0,17,17h-17Z" transform="translate(-84.49 -75.06)"/><path class="cls-37" d="M307.57,224.59v17h17A17,17,0,0,0,307.57,224.59Z" transform="translate(-84.49 -75.06)"/><path class="cls-38" d="M363.44,231.87H334.29V227h29.15Zm-4.86,4.86H334.29v4.86h24.29Zm4.86,9.71H334.29v4.86h29.15Zm-4.86,9.72H334.29V261h24.29Z" transform="translate(-84.49 -75.06)"/></g><polygon class="cls-39" points="625.82 666.98 577.69 583.6 481.42 583.6 433.28 666.98 481.42 750.35 577.69 750.35 625.82 666.98"/><line class="cls-40" x1="573.36" y1="586.1" x2="621.49" y2="669.48"/><line class="cls-41" x1="481.42" y1="745.35" x2="577.69" y2="745.35"/><line class="cls-42" x1="485.75" y1="747.85" x2="437.61" y2="664.48"/><line class="cls-43" x1="481.42" y1="588.6" x2="577.69" y2="588.6"/><line class="cls-44" x1="621.49" y1="664.48" x2="573.36" y2="747.85"/><line class="cls-45" x1="437.61" y1="669.48" x2="485.75" y2="586.1"/><g id="surface1-7" data-name="surface1"><path class="cls-46" d="M570.75,698.94a9.61,9.61,0,0,0-9.62,9.62v57.72a9.62,9.62,0,0,0,9.62,9.62h33.67v9.61H594.8v9.62h38.48v-9.62h-9.62V775.9h33.67a9.62,9.62,0,0,0,9.62-9.62V708.56a9.61,9.61,0,0,0-9.62-9.62Zm0,9.62h86.58v57.72H570.75Zm44.59,8.75-9.62,38.46,7,1.77,9.62-38.5ZM595.8,722l-15.43,15.43,15.43,15.42,4.81-4.81L590,737.42l10.62-10.62Zm36.48,0-4.81,4.81,10.62,10.62L627.47,748l4.81,4.81,15.43-15.42Z" transform="translate(-84.49 -75.06)"/></g><polygon class="cls-47" points="481.42 83.37 433.28 0 337.01 0 288.88 83.37 337.01 166.74 433.28 166.74 481.42 83.37"/><line class="cls-48" x1="428.95" y1="2.5" x2="477.09" y2="85.87"/><line class="cls-48" x1="477.09" y1="80.87" x2="428.95" y2="164.24"/><line class="cls-48" x1="433.28" y1="161.74" x2="337.01" y2="161.74"/><line class="cls-48" x1="341.34" y1="164.24" x2="293.21" y2="80.87"/><line class="cls-48" x1="293.21" y1="85.87" x2="341.34" y2="2.5"/><line class="cls-48" x1="337.01" y1="5" x2="433.28" y2="5"/><path class="cls-49" d="M469.8,105.3a54.13,54.13,0,1,1-54.12,54.12A54.13,54.13,0,0,1,469.8,105.3Zm24.71,92.94V153c0-7.5-1.84-15.06-7.75-20.12a26.67,26.67,0,0,0-12.71-5.77,35.25,35.25,0,0,1,18,7.82c7.8,6.67,10.59,16.34,10.59,26.3v30.41A46,46,0,0,0,444.49,121c-.08,8.64-.69,19.21,3.52,27l1.93,3.59a20.27,20.27,0,0,0-9.08,17.26c0,11,5.84,17.38,14,20.47-17.39-5.85-28.71-21.87-15.06-39.55-3.12-6.64-3.38-14.64-3.38-22.05a46,46,0,0,0,58.08,70.49Z" transform="translate(-84.49 -75.06)"/><path class="cls-50" d="M475.29,161.37c-5.73-1-15.71-1.2-15.71,6.91,0,5.77,4.86,7.06,9.72,7l6,10.76V161.37Zm0-10.3c0-6.72-5.46-7.7-11-7.7a35.41,35.41,0,0,0-11.5,2.1,21,21,0,0,1-2.8-10.41c10-3.41,24.65-5.25,33.26,2.1q5.85,5,5.85,16v30a65.92,65.92,0,0,1-19.81,3.11c-11.7,0-23-3.81-23-17.41,0-8.88,6.39-14.31,14.61-16.06a48.35,48.35,0,0,1,14.41-.55v-1.2Z" transform="translate(-84.49 -75.06)"/><polygon class="cls-51" points="481.35 750.35 433.21 666.98 336.94 666.98 288.81 750.35 336.94 833.72 433.21 833.72 481.35 750.35"/><line class="cls-52" x1="428.88" y1="669.48" x2="477.02" y2="752.85"/><line class="cls-52" x1="477.02" y1="747.85" x2="428.88" y2="831.22"/><line class="cls-52" x1="433.21" y1="828.72" x2="336.94" y2="828.72"/><line class="cls-52" x1="341.27" y1="831.22" x2="293.14" y2="747.85"/><line class="cls-52" x1="293.14" y1="752.85" x2="341.27" y2="669.48"/><line class="cls-52" x1="336.94" y1="671.98" x2="433.21" y2="671.98"/><g id="surface1-8" data-name="surface1"><path class="cls-5" d="M477.62,827.61l2.23-14.47h6.6l-5.21,24.53h-5.83l-3.67-14.56-3.68,14.56h-5.83L457,813.14h6.61L465.81,828l3.52-14.81h4.8Zm-34.35,0,2.23-14.47h6.6l-5.2,24.53h-5.84l-3.66-14.56-3.68,14.56h-5.84l-5.22-24.53h6.62L431.46,828,435,813.14h4.81Zm68.69,0,2.23-14.47h6.61l-5.21,24.53h-5.83l-3.67-14.56-3.68,14.56h-5.83l-5.22-24.53H498L500.15,828l3.52-14.81h4.81Z" transform="translate(-84.49 -75.06)"/><path class="cls-13" d="M433.7,796h76.06v4.9H433.7Z" transform="translate(-84.49 -75.06)"/><path class="cls-13" d="M433.7,796h76.06v4.9H433.7Zm0,54h76.06v4.91H433.7Z" transform="translate(-84.49 -75.06)"/><path class="cls-13" d="M431.07,808.23a44.35,44.35,0,0,1,28.12-25.14c-4.82,5.63-8.54,14.47-10.48,25.14h5c2.73-14,8.63-24.53,15.55-26.58v26.58h4.9V781.65c6.92,2,12.82,12.55,15.55,26.58h5c-1.95-10.67-5.67-19.51-10.49-25.14a44.35,44.35,0,0,1,28.12,25.14h5.24a49,49,0,0,0-91.8,0Zm81.32,34.35a44.37,44.37,0,0,1-28.12,25.15c4.82-5.64,8.54-14.47,10.49-25.15h-5c-2.73,14-8.63,24.54-15.55,26.58V842.58h-4.9v26.58c-6.92-2-12.82-12.55-15.55-26.58h-5c1.94,10.68,5.66,19.51,10.48,25.15a44.37,44.37,0,0,1-28.12-25.15h-5.24a49,49,0,0,0,91.8,0Z" transform="translate(-84.49 -75.06)"/></g><polygon class="cls-53" points="192.54 250.12 144.4 166.74 48.13 166.74 0 250.12 48.13 333.49 144.4 333.49 192.54 250.12"/><line class="cls-54" x1="140.07" y1="169.24" x2="188.21" y2="252.62"/><line class="cls-54" x1="188.21" y1="247.62" x2="140.07" y2="330.99"/><line class="cls-54" x1="144.4" y1="328.49" x2="48.13" y2="328.49"/><line class="cls-54" x1="52.46" y1="330.99" x2="4.33" y2="247.62"/><line class="cls-54" x1="4.33" y1="252.62" x2="52.46" y2="169.24"/><line class="cls-54" x1="48.13" y1="171.74" x2="144.4" y2="171.74"/><g id="surface1-9" data-name="surface1"><path class="cls-17" d="M205.2,304.41a11.61,11.61,0,0,0,.27-2.91,10.64,10.64,0,0,0-.27-2.91l6.09-4.5a1.74,1.74,0,0,0,.53-1.85l-6.09-10.33a1.52,1.52,0,0,0-1.85-.53L197,284.56a21.45,21.45,0,0,0-5.3-3.18l-.79-7.68a1.42,1.42,0,0,0-1.33-1.32H177.4a1.41,1.41,0,0,0-1.32,1.32l-.79,7.68a15,15,0,0,0-5.3,2.91l-6.88-3.17a1.52,1.52,0,0,0-1.86.53l-6.09,10.59a1.76,1.76,0,0,0,.53,1.85l6.09,4.5a12.09,12.09,0,0,0-.26,2.91,11,11,0,0,0,.26,2.91l-6.09,4.5a1.77,1.77,0,0,0-.53,1.86l6.09,10.32a1.52,1.52,0,0,0,1.86.53l6.88-3.17a21.53,21.53,0,0,0,5.3,3.17l.79,7.68a1.41,1.41,0,0,0,1.32,1.32h11.92a1.25,1.25,0,0,0,1.32-1.32l.8-7.68a21.66,21.66,0,0,0,5.29-3.17l6.88,3.17a1.52,1.52,0,0,0,1.86-.53l6.09-10.32c.26-.53.26-1.59-.53-1.86Zm-21.71,10.86a13.77,13.77,0,1,1,13.77-13.77,13.67,13.67,0,0,1-13.77,13.77Z" transform="translate(-84.49 -75.06)"/><path class="cls-4" d="M183.49,285.62a15.89,15.89,0,1,0,15.89,15.88,15.93,15.93,0,0,0-15.89-15.88Zm0,23.82a7.94,7.94,0,1,1,7.95-7.94,7.8,7.8,0,0,1-7.95,7.94Z" transform="translate(-84.49 -75.06)"/><path class="cls-55" d="M222,347.83a6.61,6.61,0,0,0-6.15-4,6.82,6.82,0,0,0-2.56.56l-3,1.32c0-.18-.11-.34-.16-.53a6.64,6.64,0,0,0-6.14-4,6.72,6.72,0,0,0-2.57.53l-8.84,3.82-21,9.05-14.69-4.74c-.48.2-8.59,3.28-13.89,5.38L187.43,374l33.13-14.2-2-3.21A6.62,6.62,0,0,0,222,347.83Z" transform="translate(-84.49 -75.06)"/><path class="cls-56" d="M233.24,350.48a6.62,6.62,0,0,0-6.14-4,6.08,6.08,0,0,0-2.57.56L202,356.91a11.34,11.34,0,0,1-.82,4.93,12.09,12.09,0,0,1-1.8,3.1,11.9,11.9,0,0,1-9.27,4.42,6.11,6.11,0,0,1-.74,0,11.52,11.52,0,0,1-3.65-.82l-.53-.21-23.89-9.43a2.64,2.64,0,0,1,2-4.88l4.72,1.86.12,0c7.27,2.85,16.12,6.37,18.73,7.4l.25.1h0l.52.21a6.62,6.62,0,0,0,4.9-12.3c-.86-.34-20.95-8.33-27.91-11a27.93,27.93,0,0,0-9-1.75c-9.32,0-22.08,4.86-27.79,7.28l8.93,21.84,10-4.1,35.54,14.21a6.7,6.7,0,0,0,2.47.48,6.55,6.55,0,0,0,2.64-.56l42.36-18.53A6.6,6.6,0,0,0,233.24,350.48Z" transform="translate(-84.49 -75.06)"/></g><polygon class="cls-57" points="192.54 583.6 144.4 500.23 48.13 500.23 0 583.6 48.13 666.98 144.4 666.98 192.54 583.6"/><line class="cls-58" x1="140.07" y1="502.73" x2="188.21" y2="586.1"/><line class="cls-58" x1="188.21" y1="581.1" x2="140.07" y2="664.48"/><line class="cls-58" x1="144.4" y1="661.98" x2="48.13" y2="661.98"/><line class="cls-58" x1="52.46" y1="664.48" x2="4.33" y2="581.1"/><line class="cls-58" x1="4.33" y1="586.1" x2="52.46" y2="502.73"/><line class="cls-58" x1="48.13" y1="505.23" x2="144.4" y2="505.23"/><g id="surface1-10" data-name="surface1"><path class="cls-31" d="M231.61,645.77V635.4H205.68V609.47H195.31V635.4H184.94V609.47H174.57V635.4H164.2V609.47H153.83V635.4H127.9v10.37h25.93v10.38H127.9v10.37h25.93v10.37H127.9v10.37h25.93v25.93H164.2V687.26h10.37v25.93h10.37V687.26h10.37v25.93h10.37V687.26h25.93V676.89H205.68V666.52h25.93V656.15H205.68V645.77Z" transform="translate(-84.49 -75.06)"/><path class="cls-59" d="M138.27,630.22v62.23a10.41,10.41,0,0,0,10.37,10.37h62.23a10.41,10.41,0,0,0,10.37-10.37V630.22a10.4,10.4,0,0,0-10.37-10.37H148.64A10.4,10.4,0,0,0,138.27,630.22Z" transform="translate(-84.49 -75.06)"/><path class="cls-32" d="M197.91,679.48h-36.3a5.2,5.2,0,0,1-5.19-5.18V648.37a5.2,5.2,0,0,1,5.19-5.19h36.3a5.2,5.2,0,0,1,5.18,5.19V674.3A5.19,5.19,0,0,1,197.91,679.48Z" transform="translate(-84.49 -75.06)"/></g><polygon class="cls-60" points="192.54 416.86 144.4 333.49 48.13 333.49 0 416.86 48.13 500.23 144.4 500.23 192.54 416.86"/><line class="cls-61" x1="140.07" y1="335.99" x2="188.21" y2="419.36"/><line class="cls-61" x1="188.21" y1="414.36" x2="140.07" y2="497.73"/><line class="cls-61" x1="144.4" y1="495.23" x2="48.13" y2="495.23"/><line class="cls-61" x1="52.46" y1="497.73" x2="4.33" y2="414.36"/><line class="cls-61" x1="4.33" y1="419.36" x2="52.46" y2="335.99"/><line class="cls-61" x1="48.13" y1="338.49" x2="144.4" y2="338.49"/><g id="surface1-11" data-name="surface1"><path class="cls-3" d="M127.89,530.29a27.48,27.48,0,0,1,48.14,0v7.45H127.89Zm105.9,0a27.48,27.48,0,0,0-48.14,0v7.45h48.14Z" transform="translate(-84.49 -75.06)"/><path class="cls-56" d="M152,487.19a12,12,0,1,0,12,12A12,12,0,0,0,152,487.19Zm57.76,0a12,12,0,1,0,12,12A12,12,0,0,0,209.72,487.19Z" transform="translate(-84.49 -75.06)"/><path class="cls-62" d="M180.84,441.46a21.67,21.67,0,1,0,21.66,21.67A21.67,21.67,0,0,0,180.84,441.46Z" transform="translate(-84.49 -75.06)"/><path class="cls-63" d="M195.28,463.13a14.44,14.44,0,1,0-22.79,11.76,2.59,2.59,0,0,1,1.13,2.08v3h14.44v-3a2.58,2.58,0,0,1,1.13-2.07A14.36,14.36,0,0,0,195.28,463.13Z" transform="translate(-84.49 -75.06)"/><path class="cls-64" d="M173.62,477.57v7.22a4.92,4.92,0,0,0,3.85,4.81,3.63,3.63,0,0,0,3.37,2.41,3.4,3.4,0,0,0,3.37-2.41,4.91,4.91,0,0,0,3.85-4.81v-7.22Z" transform="translate(-84.49 -75.06)"/><path class="cls-65" d="M183.21,477.57h-4.73v-9l-6.16-6.16,3.32-3.31,5.2,5.21,5.21-5.21,3.31,3.31-6.15,6.16Z" transform="translate(-84.49 -75.06)"/><path class="cls-66" d="M188.06,484.79v-4.58l-14.44,1.93v2.65a7,7,0,0,0,.48,2.16l14-1.68Z" transform="translate(-84.49 -75.06)"/></g><path class="cls-67" d="M617.64,474.11,504.23,600.32V559.79l100-111.34-100-111.35V296.58L617.64,422.79A38.4,38.4,0,0,1,617.64,474.11Z" transform="translate(-84.49 -75.06)"/><path class="cls-68" d="M435,337.1,335,448.45,435,559.79v40.53L321.63,474.11a38.4,38.4,0,0,1,0-51.32L435,296.58Z" transform="translate(-84.49 -75.06)"/><rect class="cls-69" x="317.09" y="544.46" width="136.11" height="13.54" rx="6.77"/><rect class="cls-70" x="331.4" y="571.56" width="107.5" height="13.54" rx="6.77"/><rect class="cls-71" x="345.71" y="598.66" width="78.89" height="13.54" rx="6.77"/><path class="cls-72" d="M425.06,435.47q-2-1.92-7.62-1.92h-24v-8.26h25.16v4.36l7.89-1.85V427q0-4.72-2-6.58T417,418.56H395.19c-3.74,0-6.26.65-7.57,1.93s-2,3.67-2,7.16v4.26q0,5.23,2,7.16t7.57,1.93h24v8.76H392v-4.54l-7.9,1.64v1.05c0,3.49.67,5.88,2,7.16s3.86,1.93,7.62,1.93h23.74q5.64,0,7.62-1.93t2-7.16v-5.27Q427,437.41,425.06,435.47Z" transform="translate(-84.49 -75.06)"/><path class="cls-73" d="M473.25,418.56h-8.61L442.89,457h8.91l4.47-8.4h24.37l4.61,8.4h10Zm-13.16,23.09L468.64,426l8.29,15.63Z" transform="translate(-84.49 -75.06)"/><path class="cls-74" d="M553.12,420.33q-2.05-1.77-6.63-1.77H513.61V457h8.8V442h24.08q4.57,0,6.63-1.77c1.37-1.17,2.06-3.06,2.06-5.65V426Q555.18,422.09,553.12,420.33Zm-6.56,12a2.87,2.87,0,0,1-.86,2.38,5.39,5.39,0,0,1-3.18.67H522.41V425.22h20.11a5.39,5.39,0,0,1,3.18.67,2.83,2.83,0,0,1,.86,2.35Z" transform="translate(-84.49 -75.06)"/><path class="cls-75" d="M435.59,468.81c-.61-.67-1.78-1-3.51-1H419c-1.73,0-2.9.34-3.51,1s-.91,1.92-.91,3.75v10.6c0,1.84.31,3.09.91,3.76s1.78,1,3.51,1h13.13c1.73,0,2.9-.34,3.51-1s.91-1.92.91-3.76v-10.6C436.5,470.73,436.2,469.48,435.59,468.81Zm-3.22,15.32H418.68V471.4h13.69Zm-11.44-23.71v4.36h3.44v-4.36Zm5.73,0v4.36h3.45v-4.36Z" transform="translate(-84.49 -75.06)"/><path class="cls-76" d="M464.71,467.8h-17.9v3.6H458l-12.47,14.33v2.19h19.15v-3.79H452.05l12.66-14.33Z" transform="translate(-84.49 -75.06)"/><path class="cls-77" d="M495.11,472.83v-.46a5.31,5.31,0,0,0-.92-3.58c-.62-.66-1.79-1-3.5-1h-12.3c-1.73,0-2.9.34-3.51,1s-.91,1.92-.91,3.75v10.6c0,1.84.3,3.09.91,3.76s1.78,1,3.51,1h12.3c1.73,0,2.9-.34,3.51-1s.91-1.92.91-3.76v-6.93H484.3v3.43h6.78v4.47h-13V471.4h13v2.24Z" transform="translate(-84.49 -75.06)"/><path class="cls-78" d="M522.63,467.8v16.33H510.8V467.8h-4.15v15.36c0,1.84.31,3.09.92,3.76s1.78,1,3.5,1h11.27c1.74,0,2.91-.34,3.51-1s.92-1.92.92-3.76V467.8Zm-10.51-7.38v4.36h3.44v-4.36Zm5.74,0v4.36h3.44v-4.36Z" transform="translate(-84.49 -75.06)"/><path class="cls-79" d="M534.62,467.8v3.6h8.19v16.52H547V471.4h8.22v-3.6Z" transform="translate(-84.49 -75.06)"/><path class="cls-80" d="M403.58,474.46v-1.9c0-1.83-.3-3.08-.92-3.75s-1.78-1-3.5-1H388.52c-1.74,0-2.91.34-3.51,1s-.92,1.92-.92,3.75v10.6c0,1.84.31,3.09.92,3.76s1.77,1,3.51,1h4.59V491l.28,0h.26a2.73,2.73,0,0,1,1.46.29,1.14,1.14,0,0,1,.09,1.76,1.76,1.76,0,0,1-1.08.29,8.83,8.83,0,0,1-1.46-.16,19.28,19.28,0,0,1-2-.49v1.79a16.78,16.78,0,0,0,2,.49,9.54,9.54,0,0,0,1.66.16,3.72,3.72,0,0,0,2.47-.74,2.65,2.65,0,0,0,.87-2.12,2.85,2.85,0,0,0-.78-2.2,3.39,3.39,0,0,0-2.38-.72h-.21v-1.41h4.85c1.72,0,2.89-.34,3.5-1s.92-1.92.92-3.76v-2.38l-4.15-1v4.32H388.25V471.4h11.18v3.8Z" transform="translate(-84.49 -75.06)"/></svg>