<svg xmlns="http://www.w3.org/2000/svg" viewBox="0 0 50 50">
  <path d="M38.5625 -0.09375C34.761719 -0.0195313 30.148438 2.351563 28 4.5C25.269531 7.230469 25.03125 10.980469 27.3125 14.875L23.75 18.4375L25.03125 19.6875C25.703125 19.125 26.570313 18.8125 27.5 18.8125C28.535156 18.8125 29.527344 19.1875 30.21875 19.875L30.90625 20.59375C31.816406 21.503906 32.207031 22.789063 31.96875 24.03125L32.65625 24.75C32.78125 24.75 32.90625 24.773438 33.03125 24.78125L35.15625 22.65625C36.945313 23.617188 38.667969 24.09375 40.25 24.09375C42.199219 24.09375 43.953125 23.359375 45.40625 21.90625C48.09375 19.21875 51.019531 12.953125 49.65625 8.875C49.546875 8.546875 49.277344 8.296875 48.9375 8.21875C48.597656 8.136719 48.246094 8.253906 48 8.5L42.6875 13.78125C42.363281 14.105469 41.753906 14.085938 41.40625 13.78125L36.09375 8.5C35.769531 8.175781 35.789063 7.570313 36.09375 7.21875L41.40625 1.90625C41.648438 1.664063 41.765625 1.304688 41.6875 0.96875C41.609375 0.632813 41.355469 0.363281 41.03125 0.25C40.28125 -0.0078125 39.441406 -0.109375 38.5625 -0.09375 Z M 2.5 0L0 2.5L4.1875 9.8125L6.90625 9.40625L22.5 25L21.3125 26.1875C20.621094 26.878906 20.621094 28.121094 21.3125 28.8125L22 29.5C22.492188 29.988281 23.320313 30.152344 23.96875 29.90625L24.59375 29.6875L26.78125 31.875L26.71875 32.34375C26.605469 33.40625 27.023438 34.523438 27.8125 35.3125L40.9375 48.46875C41.953125 49.484375 43.285156 50.03125 44.6875 50.03125C46.089844 50.03125 47.441406 49.464844 48.46875 48.4375C50.472656 46.339844 50.488281 42.988281 48.46875 40.96875L35.3125 27.8125C34.566406 27.066406 33.496094 26.671875 32.34375 26.75L31.875 26.78125L29.6875 24.59375L29.90625 23.96875C30.171875 23.285156 30.015625 22.515625 29.5 22L28.8125 21.3125C28.179688 20.679688 26.820313 20.679688 26.1875 21.3125L25 22.5L9.40625 6.90625L9.8125 4.1875 Z M 18.4375 23.75L12.375 29.8125C11.683594 29.675781 11.003906 29.59375 10.3125 29.59375C4.6875 29.59375 0.09375 34.1875 0.09375 39.8125C0.09375 45.4375 4.6875 50 10.3125 50C15.9375 50 20.5 45.4375 20.5 39.8125C20.5 38.964844 20.429688 38.230469 20.25 37.5625L24.71875 33.09375C24.707031 32.941406 24.683594 32.777344 24.6875 32.625L24.03125 31.96875C22.808594 32.199219 21.472656 31.785156 20.59375 30.90625L19.875 30.21875C18.476563 28.820313 18.429688 26.519531 19.6875 25.03125 Z M 31.71875 30.28125L43.71875 42.28125L42.28125 43.71875L30.28125 31.71875 Z M 11.5 35L15 38.5L13.8125 43.1875L9 44.5L5.5 41L6.8125 36.3125Z" fill="#FFFFFF" />
</svg>