<svg id="Слой_1" data-name="Слой 1" xmlns="http://www.w3.org/2000/svg" xmlns:xlink="http://www.w3.org/1999/xlink" viewBox="0 0 467.75 467.64">
<defs>
<style>.ss-1{fill:url(#sapsargyt);}.ss-2{fill:url(#sapsargyt-2);}.ss-3{fill:url(#sapsargyt-2);}.ss-4{fill:url(#sapsargyt-2-2);}.ss-5{fill:url(#sapsargyt-2-3);}.ss-6{fill:url(#sapsargyt-2-4);}.ss-7{fill:url(#sapsargyt-3);}
</style>
<radialGradient id="sapsargyt" cx="307.16" cy="354.12" r="155" gradientUnits="userSpaceOnUse">
<stop offset="0" stop-color="#efe09c"/>
<stop offset="0.99" stop-color="#e9bb66"/>
</radialGradient>
<radialGradient id="sapsargyt-2" cx="192.84" cy="145.85" r="154.98" xlink:href="#sapsargyt"/>
<linearGradient id="sapsargyt-2" x1="151.76" y1="202.17" x2="284.66" y2="202.17" gradientUnits="userSpaceOnUse">
<stop offset="0" stop-color="#fffdfc"/>
<stop offset="0.2" stop-color="#e5e4e3"/>
<stop offset="0.55" stop-color="#bdbcbc"/>
<stop offset="0.83" stop-color="#a4a4a4"/>
<stop offset="1" stop-color="#9b9b9b"/>
</linearGradient>
<linearGradient id="sapsargyt-2-2" x1="251.74" y1="233.49" x2="276.49" y2="233.49" xlink:href="#sapsargyt-2"/>
<linearGradient id="sapsargyt-2-3" x1="151.43" y1="301.61" x2="283.76" y2="301.61" xlink:href="#sapsargyt-2"/>
<linearGradient id="sapsargyt-2-4" x1="215.04" y1="249.84" x2="285.28" y2="249.84" xlink:href="#sapsargyt-2"/>
<radialGradient id="sapsargyt-3" cx="281.64" cy="263.09" r="75.75" xlink:href="#sapsargyt"/>
</defs>
<rect x="68.68" y="68.54" width="362.74" height="363.04" rx="30" ry="30" transform="translate(-72.33 410.69) rotate(-75)"/>
<path class="ss-1" d="M478.83,283.62l-34.18-59.2-6.9,25.72L462.52,293a18.92,18.92,0,0,1-6.9,25.74L206.76,462.46A18.93,18.93,0,0,1,181,455.57l-24.84-43-25.74-6.89L164.7,465a37.43,37.43,0,0,0,22.89,17.52,37.93,37.93,0,0,0,9.87,1.31,37.3,37.3,0,0,0,18.72-5L465,335.1a37.78,37.78,0,0,0,13.79-51.48Z" transform="translate(-16.13 -16.18)"/>
<path class="ss-2" d="M37.48,207a18.92,18.92,0,0,1,6.9-25.74L293.24,37.54A18.63,18.63,0,0,1,302.57,35a19.1,19.1,0,0,1,5,.66A18.71,18.71,0,0,1,319,44.43l24.83,43,25.73,6.9L335.3,35a37.78,37.78,0,0,0-51.48-13.79L35,164.9a37.78,37.78,0,0,0-13.79,51.48l34.14,59.13,6.86-25.8Z" transform="translate(-16.13 -16.18)"/>
<path class="ss-3" d="M151.78,203c0-.46,0-.89,0-1.33,0-1.07.06-2.14.15-3.21A47.93,47.93,0,0,1,168.45,165a49.38,49.38,0,0,1,9.82-6.54,45.87,45.87,0,0,1,5.28-2.38c8-3.1,15.54-2.84,24-2.8,2.27,0,4.56,0,6.83,0q10.18.06,20.36.08h.22l47.4.24h2.34L275.38,173c-1.5,0-3,0-4.56,0l-4.65,0c-6.7,0-13.9.24-21.67,3.25a51.34,51.34,0,0,0-5.93,2.67,55,55,0,0,0-6.16,3.64H210.7c-9.56,0-19.14.52-25.27,8.93a18,18,0,0,0-3.12,7.15,19.78,19.78,0,0,0-.24,6.42,21.79,21.79,0,0,0,2.27,7.22c4.43,8.51,12.59,10.24,21.62,10.24h2.86c-.06.54-.11,1.09-.15,1.66-.11,1.2-.15,2.4-.17,3.73,0,.52,0,1.07,0,1.44a62.65,62.65,0,0,0,2.83,16.82,50.66,50.66,0,0,0,1.79,4.93c-2.2,0-4.38,0-6.59,0-2.68,0-3.77.13-8.05,0a8.26,8.26,0,0,1-1-.07,49.5,49.5,0,0,1-10.65-1.83,43.46,43.46,0,0,1-6.33-2.47,51.24,51.24,0,0,1-14.62-10.28c-.94-.91-1.84-1.83-2.66-2.79a42.22,42.22,0,0,1-4.91-6.61,37.65,37.65,0,0,1-4-8.95A57.43,57.43,0,0,1,151.78,203Z" transform="translate(-16.13 -16.18)"/>
<path class="ss-4" d="M251.83,230.34A14,14,0,0,1,252,226a9.28,9.28,0,0,1,.26-1.07c6.68,2.38,16.94,7.39,24.22,17.13h-7.24c-8.88,0-13.31-1.88-15.82-6.7A15.74,15.74,0,0,1,251.83,230.34Z" transform="translate(-16.13 -16.18)"/>
<path class="ss-5" d="M283.76,283.7a44.83,44.83,0,0,1-17.89,26.6H239l-7.21,0-5.78,0-4.78,9.25-.41.81-69.42.19,9-17.59,3.38-6.61,2.93-5.67c3,0,6,0,9,0,7,0,13.92,0,20.88,0h3.06c9.69,0,18.26-.07,27.6-.07l8.69,0a27.76,27.76,0,0,0,4.63-.35,29.87,29.87,0,0,0,4.58-1.46,19.84,19.84,0,0,0,7.59-6.13,47.77,47.77,0,0,0,7.42,1c.5.05,1,.09,1.36.09h0c1.51,0,2.64.07,3.58.07s1.7,0,2.46-.05l2.21,0c3,0,5.93,0,9,0Z" transform="translate(-16.13 -16.18)"/>
<path class="ss-6" d="M285.22,273c-.06,1.44-.17,2.84-.32,4.19-2,0-4.08,0-6.11,0-3,0-6,0-9,0-2.69,0-3.78.13-8,0a8.55,8.55,0,0,1-1-.06,41.94,41.94,0,0,1-4.8-.53,23.28,23.28,0,0,0,1-5.1,18.4,18.4,0,0,0-4.78-13.6,20.19,20.19,0,0,0-7.14-5.08c-.41-.18-.83-.33-1.24-.48a26.87,26.87,0,0,0-8.36-1.36c-3.1,0-6.18-.06-9.28-.06-1.94,0-3.88,0-5.82,0a36.29,36.29,0,0,1-2.73-6.74,57.51,57.51,0,0,1-2.58-15.08c0-.46,0-.9,0-1.33q0-1.6.15-3.21c.05-.72.11-1.46.22-2.18h5.39c4.43,0,8.45,0,12.55.08,3,0,6.07.05,9.36.05.13,0,2.62.43,2.77.43l.53.11a14.63,14.63,0,0,0-.42,1.64,20.06,20.06,0,0,0-.24,6.42,21.79,21.79,0,0,0,2.27,7.22c4.43,8.51,12.59,10.23,21.63,10.23h11.28C283.74,255,285.66,263.05,285.22,273Z" transform="translate(-16.13 -16.18)"/>
<path class="ss-7" d="M348.51,299.15c-1.86,42.55-44.34,47.35-44.34,47.35l-89.46.24,9-17.59,3.38-6.61,1.13-2.18,1.79-3.49c3,0,6,0,9,0,4.91,0,9.79,0,14.68,0H263c9.69,0,18.27-.06,27.61-.06l8.69,0a27.64,27.64,0,0,0,4.62-.35,29.19,29.19,0,0,0,4.58-1.46,20.23,20.23,0,0,0,8-6.68,20.8,20.8,0,0,0,3.78-10.6,18.37,18.37,0,0,0-4.78-13.6,20,20,0,0,0-7.13-5.08c-.42-.18-.83-.33-1.25-.49a27.06,27.06,0,0,0-8.36-1.35c-3.1,0-6.17-.06-9.27-.06-1.53,0-3.06,0-4.58,0-2,0-4.08,0-6.11,0-3,0-6,0-9,0-2.69,0-3.78.13-8,0a8.55,8.55,0,0,1-1-.06,41.94,41.94,0,0,1-4.8-.53,53.61,53.61,0,0,1-5.85-1.3,45.1,45.1,0,0,1-6.33-2.47,51.58,51.58,0,0,1-14.62-10.28c-.94-.92-1.83-1.83-2.66-2.79a43.35,43.35,0,0,1-4.91-6.61c-.44-.72-.85-1.47-1.24-2.21a36.29,36.29,0,0,1-2.73-6.74,57.51,57.51,0,0,1-2.58-15.08c0-.46,0-.9,0-1.33q0-1.6.15-3.21c.05-.72.11-1.46.22-2.18a47.59,47.59,0,0,1,16.33-31.23,49.57,49.57,0,0,1,9.82-6.55,43.6,43.6,0,0,1,4.8-2.18l.48-.2c8-3.09,15.54-2.83,24-2.79h1.44c1.79,0,3.6,0,5.39,0q10.19.07,20.36.09h.22l47.4.24h2.33l-13.86,28.83H274c-9.55,0-19.13.52-25.27,8.92a18,18,0,0,0-2.7,5.52,14.63,14.63,0,0,0-.42,1.64,20.06,20.06,0,0,0-.24,6.42,21.79,21.79,0,0,0,2.27,7.22c4.43,8.51,12.59,10.23,21.63,10.23h14.84c4.43,0,8.44.05,12.55.09,3,0,6.06.05,9.36.05.13,0,2.62.43,2.77.43S350.39,256.61,348.51,299.15Z" transform="translate(-16.13 -16.18)"/>
<path class="ss-7" d="M348.51,299.15c-1.86,42.55-44.34,47.35-44.34,47.35l-89.46.24,9-17.59,3.38-6.61,1.13-2.18,1.79-3.49c3,0,6,0,9,0,4.91,0,9.79,0,14.68,0H263c9.69,0,18.27-.06,27.61-.06l8.69,0a27.64,27.64,0,0,0,4.62-.35,29.19,29.19,0,0,0,4.58-1.46,20.23,20.23,0,0,0,8-6.68,20.8,20.8,0,0,0,3.78-10.6,18.37,18.37,0,0,0-4.78-13.6,20,20,0,0,0-7.13-5.08c-.42-.18-.83-.33-1.25-.49a27.06,27.06,0,0,0-8.36-1.35c-3.1,0-6.17-.06-9.27-.06-1.53,0-3.06,0-4.58,0-2,0-4.08,0-6.11,0-3,0-6,0-9,0-2.69,0-3.78.13-8,0a8.55,8.55,0,0,1-1-.06,41.94,41.94,0,0,1-4.8-.53,53.61,53.61,0,0,1-5.85-1.3,45.1,45.1,0,0,1-6.33-2.47,51.58,51.58,0,0,1-14.62-10.28c-.94-.92-1.83-1.83-2.66-2.79a43.35,43.35,0,0,1-4.91-6.61c-.44-.72-.85-1.47-1.24-2.21a36.29,36.29,0,0,1-2.73-6.74,57.51,57.51,0,0,1-2.58-15.08c0-.46,0-.9,0-1.33q0-1.6.15-3.21c.05-.72.11-1.46.22-2.18a47.59,47.59,0,0,1,16.33-31.23,49.57,49.57,0,0,1,9.82-6.55,43.6,43.6,0,0,1,4.8-2.18l.48-.2c8-3.09,15.54-2.83,24-2.79h1.44c1.79,0,3.6,0,5.39,0q10.19.07,20.36.09h.22l47.4.24h2.33l-13.86,28.83H274c-9.55,0-19.13.52-25.27,8.92a18,18,0,0,0-2.7,5.52,14.63,14.63,0,0,0-.42,1.64,20.06,20.06,0,0,0-.24,6.42,21.79,21.79,0,0,0,2.27,7.22c4.43,8.51,12.59,10.23,21.63,10.23h14.84c4.43,0,8.44.05,12.55.09,3,0,6.06.05,9.36.05.13,0,2.62.43,2.77.43S350.39,256.61,348.51,299.15Z" transform="translate(-16.13 -16.18)"/>
</svg>